<svg xmlns="http://www.w3.org/2000/svg" xmlns:xlink="http://www.w3.org/1999/xlink" viewBox="0 0 692.86 504"><defs><style>.cls-1{fill:url(#linear-gradient);}.cls-2{fill:#65a8df;}.cls-3{fill:#5391a0;}.cls-4{fill:#4675b8;}.cls-5{fill:#253163;}.cls-6{opacity:0.71;}.cls-7{opacity:0.29;}.cls-8{fill:#c2d7eb;}.cls-9{fill:#a32430;}.cls-10{fill:none;stroke:#e2b7d2;stroke-miterlimit:10;}.cls-11{fill:#272525;}.cls-12{fill:#e2b7d2;}.cls-13,.cls-14{fill:#fff;}.cls-13{opacity:0.68;}</style><linearGradient id="linear-gradient" x1="179.96" y1="233.72" x2="179.96" gradientUnits="userSpaceOnUse"><stop offset="0" stop-color="#253163"/><stop offset="0.02" stop-color="#2a3a6c"/><stop offset="0.1" stop-color="#3c5b8f"/><stop offset="0.2" stop-color="#4b77ac"/><stop offset="0.29" stop-color="#568dc3"/><stop offset="0.39" stop-color="#5f9cd3"/><stop offset="0.51" stop-color="#63a5dc"/><stop offset="0.67" stop-color="#65a8df"/></linearGradient></defs><g id="Sea"><rect class="cls-1" width="359.93" height="233.72"/><g id="love_sea" data-name="love sea"><path class="cls-2" d="M24.85,176.12c5.4,0,6.33,7.68,13.58,8.78V100.39H8.71V185c8.66,0,9.93-8.92,16.14-8.92Z"/><path class="cls-3" d="M18.4,202.21h2.4c5.54,0,6.45-3.77,10-3.77,2.8,0,4.58,2.52,7.62,3.44v-17c-7.25-1.1-8.18-8.78-13.58-8.78-6.21,0-7.48,8.91-16.14,8.91v10c2.62,3.59,5.46,7.19,9.69,7.19Z"/><path class="cls-4" d="M99.36,213.41v6.88a17.88,17.88,0,0,0-1.83-1.53l-.08,0a5,5,0,0,0-.64-.39,3.69,3.69,0,0,0-1.69-.43,3.34,3.34,0,0,0-1.52.36h0c-2.16,1.06-3.51,4.12-7,4.79a3.89,3.89,0,0,1-.51.08c-.3,0-.61.05-.93.05h-2l-.57,0a5.46,5.46,0,0,1-.69-.1,5.12,5.12,0,0,1-.56-.15l-.07,0c-.15,0-.29-.1-.43-.15a6.36,6.36,0,0,1-.7-.33c-.18-.09-.36-.2-.54-.31h0c-.18-.11-.36-.24-.54-.37l-.53-.41-.33-.28a19.56,19.56,0,0,1-2.28-2.48c-.21-.26-.42-.53-.62-.81-1-1.37-2-2.87-3-4.32Z"/><path class="cls-4" d="M54.36,213.41c-.63.88-1.28,1.77-2,2.64-.22.29-.43.57-.66.84q-.66.84-1.38,1.62c-.42.46-.86.91-1.31,1.33l-.31.27-.5.42-.51.4-.53.37-.65.41a8.89,8.89,0,0,1-1.38.69c-.28.12-.56.22-.85.32l-.6.16-.07,0c-.24.06-.49.11-.74.15a9,9,0,0,1-.91.1l-.75,0H38.74a9.31,9.31,0,0,1-2.55-.34,5.58,5.58,0,0,1-.58-.18,7.07,7.07,0,0,1-.69-.27l-.65-.32-.63-.37c-.2-.13-.4-.26-.59-.4A12.16,12.16,0,0,1,31.49,220c-.5-.48-1-1-1.42-1.49-1.19-1.34-2.28-2.76-3.46-3.92l-.45-.44a9.57,9.57,0,0,0-1.86-1.37l-.31-.16a.42.42,0,0,0-.14-.06,2.63,2.63,0,0,0-.35-.15,2.86,2.86,0,0,0-.41-.15,5.09,5.09,0,0,0-.56-.14l-.45-.08-.29,0-.5,0c-5.09,0-7.55,5.75-11.72,9l0,0-.39.29-.43.3V195c2.62,3.59,5.46,7.19,9.69,7.19h2.4c5.54,0,6.45-3.77,10-3.77,2.8,0,4.58,2.52,7.62,3.44v11.53Z"/><path class="cls-2" d="M104.76,192.66a51.73,51.73,0,0,1-1.71-13.28c0-21.73,13.28-40.08,29-40.08s29,18.35,29,40.08A52.16,52.16,0,0,1,159.53,192c7.26-2.77,9.48-12.75,14.73-12.75s8.11,10,13.86,12.75a79.38,79.38,0,0,0,1-12.58c0-17.15-5.49-33.42-15.48-45.8-10.69-13.25-25.85-20.85-41.59-20.85s-30.9,7.6-41.58,20.85C80.48,146,75,162.23,75,179.38a78.68,78.68,0,0,0,.68,10.35c2,1,3.81,2.93,7,2.93Z"/><path class="cls-3" d="M82.61,192.66c-3.14,0-4.94-1.9-7-2.93.13,1,.28,2,.45,2.93a73.85,73.85,0,0,0,4.49,15.73c7.76-2.41,10-13,15.36-13,6.11,0,8.9,13.24,16.69,13.46a44.26,44.26,0,0,1-7.89-16.22Z"/><path class="cls-3" d="M174.26,179.2c-5.25,0-7.47,10-14.73,12.76l-.18.7a48.67,48.67,0,0,1-3,8.26,5.5,5.5,0,0,1,2.22-.45c5.49,0,6.08,8.41,14.52,8.41h2.74c4.89,0,6-3.11,8.83-3.51A74.88,74.88,0,0,0,188,192.66l.12-.7c-5.75-2.77-8.55-12.76-13.86-12.76Z"/><path class="cls-4" d="M130,219.35c-.47.64-.94,1.3-1.43,2-.62.83-1.25,1.65-1.92,2.42-.15.18-.31.35-.46.52s-.46.5-.7.74-.48.47-.73.69l-.38.33c-.13.11-.25.22-.38.31s-.26.21-.39.3a10.32,10.32,0,0,1-4,1.87l-.44.08a4.34,4.34,0,0,1-.52.07,1.87,1.87,0,0,1-.34,0q-.35,0-.72,0h-6.15q-.36,0-.69,0a8,8,0,0,1-2.19-.44,4.49,4.49,0,0,1-.61-.23l-.05,0-.55-.26a13,13,0,0,1-3.55-2.84c-.3-.32-.59-.65-.88-1l-.64-.75-.52-.63-1.06-1.21-.28-.3c-.28-.29-.55-.57-.84-.84l-.14-.12a8.85,8.85,0,0,0-.77-.63l-.47-.32a4.76,4.76,0,0,0-.49-.28.19.19,0,0,0-.1-.05,5.71,5.71,0,0,0-2.65-.65,5.41,5.41,0,0,0-.91.07l-.35.07h0l-.18,0A9,9,0,0,0,89.26,221q-.18.17-.33.33l0,0-.08.08-.65.71a66.72,66.72,0,0,1-5.26-8.73q-1.25-2.46-2.3-5c7.76-2.41,10-13,15.36-13,6.11,0,8.9,13.24,16.69,13.46C117.34,214.79,123.39,218.66,130,219.35Z"/><path class="cls-4" d="M184.67,205.37a69.37,69.37,0,0,1-8.14,15.93c-.93,1.36-1.93,2.69-3,4l-1.51.12a5.29,5.29,0,0,0-3.38-1.71c-3.37,0-4.23,5-9.46,5H157c-4.19,0-7.06-4.5-9.93-8.76l0,0-.09-.14-.65-.95a1,1,0,0,0-.08-.11c-.35-.51-.71-1-1.07-1.49s-.77-1-1.16-1.46a35.59,35.59,0,0,0,12.34-14.83,5.5,5.5,0,0,1,2.22-.45c5.49,0,6.08,8.41,14.52,8.41h2.74C180.73,208.88,181.8,205.77,184.67,205.37Z"/><path class="cls-5" d="M359.93,225.64V504H0V221.3s6.48.74,8.71.15v.15l.43-.3a2.41,2.41,0,0,0,.39-.29l0,0c4.17-3.25,6.63-9,11.72-9l.5,0,.29,0,.45.08a5.09,5.09,0,0,1,.56.14,2.86,2.86,0,0,1,.41.15,2.17,2.17,0,0,1,.35.15.42.42,0,0,1,.14.06l.31.16a9.57,9.57,0,0,1,1.86,1.37l.45.44c1.18,1.16,2.27,2.58,3.46,3.92A20,20,0,0,0,31.49,220a12.16,12.16,0,0,0,1.56,1.31,5.57,5.57,0,0,0,.59.4,6.88,6.88,0,0,0,.63.37c.21.12.43.22.65.32a7.07,7.07,0,0,0,.69.27,5.58,5.58,0,0,0,.58.18,9.31,9.31,0,0,0,2.55.34h2.52l.75,0a9,9,0,0,0,.91-.1c.25,0,.5-.09.74-.15l.07,0,.6-.16c.29-.1.57-.2.85-.32a8.89,8.89,0,0,0,1.38-.69,10,10,0,0,0,1.18-.78,5.93,5.93,0,0,0,.51-.4c.17-.13.34-.27.5-.42l.31-.27c.45-.42.89-.87,1.31-1.33s.94-1.06,1.38-1.62q.34-.4.66-.84c.67-.87,1.32-1.76,2-2.64,2.78-3.84,5.39-7.35,9.12-7.35,3.53,0,6.16,3.51,8.76,7.35,1,1.45,2,3,3,4.32.21.28.41.55.62.81A19.56,19.56,0,0,0,78.13,221a10.82,10.82,0,0,0,.86.69,5.77,5.77,0,0,0,.54.37h0c.18.11.36.22.54.31a6.36,6.36,0,0,0,.7.33l.43.15.07,0a5.12,5.12,0,0,0,.56.15,5.46,5.46,0,0,0,.69.1l.57,0h2a6.87,6.87,0,0,0,.93-.05,3.89,3.89,0,0,0,.51-.08c3.52-.67,4.87-3.73,7-4.79h0a2.41,2.41,0,0,1,.35-.07,5.41,5.41,0,0,1,.91-.07,5.71,5.71,0,0,1,2.65.65,17.88,17.88,0,0,1,1.83,1.53V220l.14.12c.29.27.56.55.84.84l.28.3,1.06,1.21.52.63.64.75c.29.33.58.66.88,1a13,13,0,0,0,3.55,2.84,5.52,5.52,0,0,0,.55.26l.05,0a4.49,4.49,0,0,0,.61.23,8,8,0,0,0,2.19.44q.33,0,.69,0h6.15q.38,0,.72,0a1.87,1.87,0,0,0,.34,0,4.34,4.34,0,0,0,.52-.07l.44-.08a10.32,10.32,0,0,0,4-1.87q.2-.13.39-.3c.13-.09.25-.2.38-.31s.25-.21.38-.33.49-.45.73-.69.47-.48.7-.74.31-.34.46-.52c.67-.77,1.3-1.59,1.92-2.42.49-.65,1-1.31,1.43-2,2.6-3.58,5-6.83,8.53-6.83,2.12,0,3.89,1.33,5.53,3.23.39.46.78.95,1.16,1.46s.72,1,1.07,1.49a1,1,0,0,1,.08.11l.65.95.09.14,0,0c2.87,4.26,5.74,8.76,9.93,8.76h2.19c5.23,0,6.09-5,9.46-5a5.29,5.29,0,0,1,3.38,1.71l1.51-.12c1-1.29,2-2.62,3-4h23l.1.32.36-.32.35-.27.36-.25c.12-.08.25-.15.38-.22s.22-.11.33-.15l.11,0,.35-.11h0a3.68,3.68,0,0,1,.89-.11,3.52,3.52,0,0,1,.66.06l.32.08.32.1.3.13.3.15.31.17q.28.18.57.39c.28.21.57.45.85.69l.29.25c.38.34.76.7,1.15,1l.61.52c.17.15.35.29.53.42l.42.31a8.24,8.24,0,0,0,1.39.78,2.26,2.26,0,0,0,.33.13,5.07,5.07,0,0,0,1,.29l.35,0a2.06,2.06,0,0,0,.26,0l.47,0h2.83l.67,0h.1a6,6,0,0,0,.61-.06,8.11,8.11,0,0,0,.86-.14,6.85,6.85,0,0,0,.81-.2l.28-.09c.18,0,.34-.11.51-.17a11.22,11.22,0,0,0,1.27-.58l.5-.27a15.49,15.49,0,0,0,2.77-2.11c.2-.18.39-.37.58-.56l.23-.24c.29-.29.56-.59.83-.9s.5-.57.74-.87.41-.5.6-.75l.65-.84c.54-.7,1.06-1.41,1.56-2.12l.89-1.22.33-.45.67-.89c.35-.46.71-.91,1.06-1.34l.84-1,.43-.45c.29-.29.58-.57.87-.82.14-.13.29-.25.44-.37l.45-.34.47-.31a4.39,4.39,0,0,1,.47-.27q.24-.14.48-.24c.14-.07.29-.12.44-.18a5.64,5.64,0,0,1,1.09-.29l.43-.07c.21,0,.42,0,.64,0,4.91,0,8.18,6.39,11.9,11.59l0-.14a13.81,13.81,0,0,0,2.18,1.54c4.12,2.5,12.37,3.51,14.89,1.2,1.36-1.25.74-4.89,3.15-5.22,1.89,1,3.38,2.92,5,4.74a5.14,5.14,0,0,0,.38.42c.25.28.51.56.78.81a.68.68,0,0,0,.12.12c.21.21.42.41.64.6a11.61,11.61,0,0,0,1.39,1.06,4.48,4.48,0,0,0,.47.28l.33.18.41.2.09,0,.39.16.43.14.47.13.36.07a2,2,0,0,0,.34.06,5,5,0,0,0,.56.06l.58,0H290a4.08,4.08,0,0,0,.61,0,3.71,3.71,0,0,0,.58-.11,4.8,4.8,0,0,0,1.06-.39,8.21,8.21,0,0,0,1.42-.92l.41-.34c.44-.38.86-.77,1.28-1.14l.75-.63c.14-.12.29-.22.43-.32l.33-.21a4.16,4.16,0,0,1,.47-.24h2.47a3.55,3.55,0,0,1,.43.23l.31.21c1.18.86,2.17,2.31,3.78,3.18.11.06.24.13.36.18a4.82,4.82,0,0,0,.57.22,3.91,3.91,0,0,0,.61.17,4.68,4.68,0,0,0,.67.11,5.9,5.9,0,0,0,.74,0h5.31l.47,0h0l.45-.07a5.2,5.2,0,0,0,.86-.23,1.88,1.88,0,0,0,.3-.12,6.19,6.19,0,0,0,1-.53c.14-.09.28-.18.41-.28l.4-.31a2.69,2.69,0,0,0,.32-.27l.15-.14c.19-.16.37-.34.55-.52a46.66,46.66,0,0,0,4.59-6.17c2.23-3.28,4.49-6.23,7.51-6.23,3.19,0,5.44,2.95,7.82,6.23a53.36,53.36,0,0,0,3.33,4.32,5.92,5.92,0,0,0,.41.45c.13.15.27.29.42.44s.28.28.43.42.29.28.44.4.3.26.45.38l.37.29.18.13c.13.09.26.19.4.27a9.23,9.23,0,0,0,1.58.85l.38.16.3.1a5.75,5.75,0,0,0,.71.2,6.08,6.08,0,0,0,.87.16,4.52,4.52,0,0,0,.53.06h.09l.61,0Z"/><path class="cls-5" d="M8.71,221.45a2,2,0,0,0,.43-.15l-.43.3Z"/><path class="cls-5" d="M21.29,212c-5.09,0-7.55,5.75-11.72,9C11.5,219.16,15.92,211.73,21.29,212Z"/><path class="cls-5" d="M30.07,218.5A20,20,0,0,0,31.49,220C31,219.51,30.53,219,30.07,218.5Z"/><path class="cls-5" d="M31.49,220a15,15,0,0,0,1.56,1.31A12.16,12.16,0,0,1,31.49,220Z"/><path class="cls-5" d="M46.56,221.71a10,10,0,0,0,1.18-.78l-.53.37Z"/><path class="cls-5" d="M78.13,221a10.82,10.82,0,0,0,.86.69l-.53-.41Z"/><path class="cls-5" d="M93.4,218.3l.18,0c-2.16,1.06-3.51,4.12-7,4.79a3,3,0,0,0,1.61-.91l.65-.71.08-.08,0,0q.15-.17.33-.33A13.46,13.46,0,0,1,93.4,218.3Z"/><path class="cls-5" d="M97.45,218.71l.08,0a5.71,5.71,0,0,0-2.65-.65,5.41,5.41,0,0,0-.91.07,4.44,4.44,0,0,1,2.84.14A5,5,0,0,1,97.45,218.71Z"/><path class="cls-5" d="M98.59,219.41a8.85,8.85,0,0,1,.77.63v.25a17.88,17.88,0,0,0-1.83-1.53.19.19,0,0,1,.1.05,4.76,4.76,0,0,1,.49.28Z"/><path class="cls-5" d="M149.79,221.3h26.74c-.93,1.36-1.93,2.69-3,4l-1.51.12a5.29,5.29,0,0,0-3.38-1.71c-3.37,0-4.23,5-9.46,5H157c-4.19,0-7.06-4.5-9.93-8.76A3.29,3.29,0,0,0,149.79,221.3Z"/><path class="cls-5" d="M199.51,221.3H200l-.36.32Z"/><path class="cls-5" d="M202.76,220.13a2.84,2.84,0,0,1,.66.07,3.52,3.52,0,0,0-.66-.06,3.68,3.68,0,0,0-.89.11A3.19,3.19,0,0,1,202.76,220.13Z"/><path class="cls-5" d="M250.7,217.29c.39.57-.09.86.86,1.75l0,.14c-3.72-5.2-7-11.59-11.9-11.59C244.14,207.59,247.33,212.37,250.7,217.29Z"/><path class="cls-5" d="M276.81,221.3c-1.65-1.82-3.14-3.75-5-4.74C274.19,216.24,275.17,219.49,276.81,221.3Z"/><path class="cls-5" d="M291.23,225.49a5.61,5.61,0,0,0,1.06-.39A4.8,4.8,0,0,1,291.23,225.49Z"/><path class="cls-4" d="M350.61,217v8.66H349l-.61,0h-.09a4.78,4.78,0,0,1-.53-.06,6.08,6.08,0,0,1-.87-.16,5.75,5.75,0,0,1-.71-.2l-.3-.1-.38-.16a9.23,9.23,0,0,1-1.58-.85l-.4-.27-.18-.13-.37-.29-.45-.38c-.15-.12-.29-.26-.44-.4l-.43-.42c-.15-.15-.29-.29-.42-.44l-.41-.45a53.36,53.36,0,0,1-3.33-4.32Z"/><path class="cls-2" d="M275.63,180.07c5.62,0,7.47,12.39,17.19,12.39H301c3.45,0,5.33-5.22,9.21-5.22,4.31,0,3.93,4.19,9.2,5.06h4.37V167.84H297.62V143.16h53V118.7H271.78v63.36a5.51,5.51,0,0,1,3.85-2Z"/><path class="cls-3" d="M292.82,192.46c-9.72,0-11.57-12.39-17.19-12.39a5.51,5.51,0,0,0-3.85,2V207.4c7.77,0,8.32-7.75,13.37-7.75s6.33,6.65,12.48,7.63V192.46Z"/><path class="cls-4" d="M322.18,217a46.66,46.66,0,0,1-4.59,6.17c-.18.18-.36.36-.55.52l-.15.14c-.11.09-.21.19-.32.27l-.4.31c-.13.1-.27.19-.41.28a6.19,6.19,0,0,1-1,.53,1.88,1.88,0,0,1-.3.12,5.2,5.2,0,0,1-.86.23l-.45.07h0l-.47,0h-5.31a5.9,5.9,0,0,1-.74,0,4.93,4.93,0,0,1-.67-.11,3.91,3.91,0,0,1-.61-.17,4.82,4.82,0,0,1-.57-.22l-.36-.18c-1.61-.87-2.6-2.32-3.78-3.18a2.11,2.11,0,0,0-.31-.21,3.55,3.55,0,0,0-.43-.23l-.29-.11a2.46,2.46,0,0,0-.29-.09l-.32,0-.33,0-.32,0a2,2,0,0,0-.35.06l-.27.08a1.45,1.45,0,0,0-.29.11h0a4.16,4.16,0,0,0-.47.24l-.33.21c-.14.1-.29.2-.43.32s-.5.4-.75.63c-.42.37-.84.76-1.28,1.14l-.41.34a8.21,8.21,0,0,1-1.42.92,4.8,4.8,0,0,1-1.06.39,3.71,3.71,0,0,1-.58.11,4.08,4.08,0,0,1-.61,0h-5.49l-.58,0a5,5,0,0,1-.56-.06,1.86,1.86,0,0,1-.34-.06,2.29,2.29,0,0,1-.36-.07,3.62,3.62,0,0,1-.47-.13l-.43-.14a3.52,3.52,0,0,1-.39-.16l-.09,0-.41-.2-.33-.18c-.16-.09-.32-.18-.47-.28a11.61,11.61,0,0,1-1.39-1.06c-.22-.19-.43-.39-.64-.6a.68.68,0,0,1-.12-.12c-.27-.25-.53-.53-.78-.81a5.14,5.14,0,0,1-.38-.42c-1.65-1.82-3.14-3.75-5-4.74V207.4c7.77,0,8.32-7.75,13.37-7.75,2.66,0,4.28,1.88,6.13,3.78l.34.34a10.67,10.67,0,0,0,6,3.51V217Z"/><path class="cls-5" d="M299.85,221.3h-2.46a1.45,1.45,0,0,1,.29-.11l.27-.08a2,2,0,0,1,.35-.06l.32,0,.33,0,.32,0a2.46,2.46,0,0,1,.29.09Z"/><path class="cls-2" d="M256.43,95.45,229,185.27H247.1c9.19,0,10.53-9.45,17.13-9.45a4.1,4.1,0,0,1,.5,0l24.52-80.39Z"/><path class="cls-2" d="M161.13,95.45l27.38,89.78c11-.85,13.29-15.08,19.93-15.08,4.67,0,7.61,6.85,11.75,11.33L194,95.45Z"/><path class="cls-3" d="M264.23,175.82c-6.6,0-7.94,9.45-17.13,9.45H229l-2.75,9a6.12,6.12,0,0,1,1.8-.26c6.17,0,6.83,9.46,16.32,9.46h11.9l8.43-27.66a4.1,4.1,0,0,0-.5,0Z"/><path class="cls-3" d="M208.44,170.15c-6.65,0-9,14.23-19.93,15.08l1,3.24c6.29,1.27,9.53,15,18,15H211c7.18,0,9.57-5.78,13.43-8.3l-4.19-13.72c-4.14-4.48-7.08-11.33-11.75-11.33Z"/><path class="cls-4" d="M256.3,203.5,251.56,219l0,.14c-3.72-5.2-7-11.59-11.9-11.59-.22,0-.43,0-.64,0l-.43.07a5.64,5.64,0,0,0-1.09.29,3.38,3.38,0,0,0-.44.18q-.24.1-.48.24c-.16.08-.31.17-.47.27a4.76,4.76,0,0,0-.47.31l-.45.34c-.14.11-.29.23-.44.37s-.58.53-.87.82-.29.3-.43.45l-.84,1c-.36.43-.71.88-1.06,1.34l-.67.89-.33.45-.89,1.22c-.51.71-1,1.42-1.56,2.12l-.65.84-.6.75c-.24.3-.49.59-.74.87s-.55.61-.83.9l-.23.24c-.19.19-.38.38-.58.56a15.49,15.49,0,0,1-2.77,2.11l-.5.27a11.22,11.22,0,0,1-1.27.58c-.16.06-.33.12-.51.17l-.28.09c-.26.08-.53.14-.81.2a8.11,8.11,0,0,1-.86.14c-.2,0-.41.05-.61.06h-.1l-.67,0h-2.83l-.47,0a2.06,2.06,0,0,1-.26,0l-.35,0a5.07,5.07,0,0,1-1-.29,1.89,1.89,0,0,1-.33-.13,8.24,8.24,0,0,1-1.39-.78l-.42-.31c-.18-.13-.36-.27-.53-.42l-.61-.52c-.39-.34-.77-.7-1.15-1l-.29-.25c-.28-.24-.57-.48-.85-.69s-.38-.27-.57-.39l-.31-.17-.3-.15-.3-.13-.32-.1-.32-.08a3.52,3.52,0,0,0-.66-.06,3.68,3.68,0,0,0-.89.11h0l-.35.11-.11,0c-.11,0-.22.1-.33.15s-.26.14-.38.22l-.36.25-.35.27-.36.32-.1-.32-10-32.83c6.29,1.27,9.53,15,18,15H211c7.18,0,9.57-5.78,13.43-8.3l.81,2.66,1.09-3.56a6.12,6.12,0,0,1,1.8-.26c6.17,0,6.83,9.46,16.32,9.46Z"/></g><g id="school_of_fish" data-name="school of fish" class="cls-6"><path class="cls-4" d="M300.14,461.53c.8-.93,1.67-1.86,3-1.88,2.1,0,3.83.47,4.51,2.68,1,3.15,1.29,6.64,2.06,9.88l-11.93,1.85a.51.51,0,0,1-.17,0c-2,0-3.74-.53-4.4-2.52-.42-1.25.42-2,1.05-2.88l-1,.15c-.15,0-.14,0-.17,0-1.3-.08-2.67-.36-3-1.81s.89-2.26,2.1-2.79l.11,0c.87-.21,1.79-.33,2.67-.47-.07-.74-.42-1.61-.41-2.33a2.38,2.38,0,0,1,2.25-2.52,2.69,2.69,0,0,1,3.08,1.7C300.05,460.85,300,461.26,300.14,461.53Z"/><path class="cls-4" d="M253.34,463.49a4.89,4.89,0,0,1,3-2c2-.25,3.83-.13,4.5,2,1,3,1.2,6.35,2,9.46-4,1-8,2.05-12,2.92l-.16,0c-1.87.1-3.71-.16-4.37-2.11-.42-1.22.47-2.1,1.09-3l-1,.25c-.15,0-.14,0-.17,0-1.28.1-2.63,0-2.91-1.44s1-2.14,2.1-2.7l.11,0,2.64-.74c0-.7-.38-1.43-.36-2.13a2.75,2.75,0,0,1,2.26-2.67,2.34,2.34,0,0,1,3,1.21C253.26,462.85,253.24,463.23,253.34,463.49Z"/><path class="cls-4" d="M230.07,465.17a5,5,0,0,1,3-1.84c1.93-.24,3.78-.21,4.45,1.9,1,3,1.21,6.33,1.91,9.43-4,.8-8,1.51-12,2.29l-.16,0c-1.94.07-3.73-.34-4.37-2.31-.4-1.24.46-2,1.11-2.84l-1,.19-.17,0c-1.27,0-2.65-.15-2.92-1.55s1-2,2.12-2.46l.11,0c.88-.17,1.8-.34,2.68-.53a19,19,0,0,1-.35-2.09,2.52,2.52,0,0,1,2.32-2.43,2.55,2.55,0,0,1,3,1.37A6.3,6.3,0,0,1,230.07,465.17Z"/><path class="cls-4" d="M206.38,464.87a4.32,4.32,0,0,1,3.07-1.62c2,0,3.94.43,4.62,2.51A77.83,77.83,0,0,1,216,475c-4,.59-8,1.21-12,1.83l-.16,0c-2,0-3.73-.66-4.32-2.66-.37-1.26.44-2,1.11-2.86l-1,.14-.18,0c-1.32-.05-2.64-.4-2.91-1.83s.84-2,2-2.42l.11,0,2.64-.35c-.08-.72-.45-1.48-.47-2.2,0-1.46.83-2.19,2.24-2.37a2.84,2.84,0,0,1,3.14,1.7C206.3,464.25,206.28,464.61,206.38,464.87Z"/><path class="cls-4" d="M276.72,462a4.64,4.64,0,0,1,2.95-1.93c2-.2,3.81.07,4.5,2.24,1,3.11,1.35,6.56,2.07,9.76-4,.79-8,1.49-11.93,2.25l-.16,0c-1.91.05-3.72-.24-4.4-2.2-.43-1.23.45-2,1.07-2.9-.21.06-.82.18-1,.21l-.17,0c-1.26,0-2.66-.14-2.95-1.56s.94-2.15,2.09-2.68l.11,0c.88-.21,1.79-.42,2.67-.65a22.62,22.62,0,0,1-.4-2.25,2.63,2.63,0,0,1,2.26-2.68,2.56,2.56,0,0,1,3.06,1.47C276.64,461.32,276.62,461.71,276.72,462Z"/><path class="cls-4" d="M290.2,442.08a4.24,4.24,0,0,1,2.93-1.93c2-.08,3.81.18,4.54,2.4,1,3.18,1.32,6.88,2.08,10.19-4.05.59-8,1.76-12,2.68l-.16,0c-2.07.1-3.75-.41-4.38-2.51-.4-1.33.39-2.21,1.06-3.24-.21.06-.81.18-1,.22l-.17,0c-1.39,0-2.67-.33-3-1.82s.85-2.28,2.07-2.84l.11,0c.88-.18,1.79-.35,2.66-.56-.06-.76-.41-1.65-.4-2.4a2.69,2.69,0,0,1,2.25-2.84A2.54,2.54,0,0,1,290,441.1C290.11,441.37,290.1,441.81,290.2,442.08Z"/><path class="cls-4" d="M243.79,446a6,6,0,0,1,3-2.1c1.95-.49,3.74-.44,4.39,1.72.94,3.08,1.23,6.44,2,9.6-4,1-7.91,2.14-11.87,3.19l-.16,0c-1.85.17-3.67,0-4.32-2-.41-1.23.47-2.12,1.09-3l-1,.29-.17.05c-1.18.12-2.6.15-2.86-1.26s1-2.26,2.07-2.87l.11,0c.87-.29,1.76-.55,2.64-.82-.06-.7-.39-1.45-.38-2.16a2.76,2.76,0,0,1,2.27-2.69,2.39,2.39,0,0,1,3,1.25C243.72,445.35,243.69,445.71,243.79,446Z"/><path class="cls-4" d="M220.52,448a7,7,0,0,1,3-1.78c1.93-.28,3.82-.11,4.49,1.91,1,2.89,1.11,6,1.83,9-4,.95-8,1.79-12,2.35h-.17c-2,0-3.82-.65-4.5-2.63-.43-1.25.42-1.89,1.1-2.73l-1,.1h-.17c-1.34-.11-2.75-.44-3-1.9s1-2,2.18-2.36h.11l2.76-.25a19.45,19.45,0,0,1-.38-2.22c.06-1.48,1.07-2,2.47-2.1a3.07,3.07,0,0,1,3.11,1.82C220.47,447.42,220.42,447.73,220.52,448Z"/><path class="cls-4" d="M196.37,445.85a4.66,4.66,0,0,1,3.12-1.52c2.07,0,3.95.53,4.6,2.7.93,3.11,1.18,6.43,1.9,9.59-4.17.39-8.3.71-12.46,1a1.07,1.07,0,0,1-.18,0c-2.11-.21-4-1-4.68-3-.44-1.31.53-1.94,1.27-2.77l-1.06.05h-.18c-1.42-.18-2.94-.57-3.27-2.09s1.09-2,2.3-2.27h.12c1,0,2-.1,3-.13a20.35,20.35,0,0,1-.5-2.23c0-1.48,1-2.06,2.41-2.1a3.55,3.55,0,0,1,3.39,1.95C196.26,445.22,196.26,445.59,196.37,445.85Z"/><path class="cls-4" d="M266.89,443.38a4.91,4.91,0,0,1,2.94-2.2c2.07-.33,3.82-.11,4.5,2.16,1,3.23,1.27,6.8,2,10.13-4,.88-7.94,1.69-11.87,2.75l-.16,0c-2,.2-3.71-.14-4.36-2.18-.41-1.28.42-2.14,1.07-3.11l-1,.25-.17,0c-1.27.13-2.62.06-2.91-1.39s.9-2.28,2.07-2.85l.11,0c.88-.25,1.78-.49,2.65-.75a23.12,23.12,0,0,1-.39-2.28,2.9,2.9,0,0,1,2.23-2.88,2.28,2.28,0,0,1,3.05,1.35C266.81,442.69,266.79,443.1,266.89,443.38Z"/><path class="cls-4" d="M303.59,422.76a4.38,4.38,0,0,1,3-1.58c2-.05,3.83.44,4.51,2.6,1,3.09,1.39,6.49,2.1,9.67-4,.67-8,1.32-11.91,2a.47.47,0,0,1-.16,0c-2.08,0-3.75-.74-4.39-2.81-.41-1.31.38-2.07,1.06-3l-1,.14-.17,0c-1.43-.09-2.68-.51-3-2s.78-2.16,2.06-2.61l.12,0c.88-.12,1.79-.22,2.67-.36-.07-.74-.43-1.67-.42-2.39,0-1.46.84-2.13,2.23-2.25a3,3,0,0,1,3.09,1.75A8.63,8.63,0,0,1,303.59,422.76Z"/><path class="cls-4" d="M256.92,424.23c.73-1,1.56-2.18,2.86-2.46,2.1-.44,3.79-.15,4.51,2.14,1,3.27,1.4,7,2.18,10.36-3.94,1.18-7.81,2.57-11.75,3.71l-.16,0c-1.9.23-3.64.11-4.29-1.94-.41-1.29.41-2.3,1-3.35-.21.09-.81.29-1,.35l-.17.05c-1.31.2-2.62.1-2.91-1.39s.82-2.43,2-3.13l.11-.05c.85-.31,1.72-.64,2.56-1-.09-.79-.43-1.72-.44-2.49a3.06,3.06,0,0,1,2.13-3.2,2.28,2.28,0,0,1,3.07,1.36C256.83,423.52,256.82,424,256.92,424.23Z"/><path class="cls-4" d="M234.3,428.33a6.05,6.05,0,0,1,2.81-2.65c2-.64,3.7-.65,4.39,1.64,1,3.27,1.22,6.93,2,10.29-3.89,1.32-7.83,2.46-11.72,3.74a.58.58,0,0,1-.16,0c-1.83.3-3.58.05-4.18-1.91-.38-1.23.51-2.17,1.1-3.12l-.94.32-.16.06c-1.2.19-2.57.25-2.84-1.19s.89-2.3,2-2.95l.1,0,2.57-.87c-.07-.73-.38-1.42-.38-2.17a3.44,3.44,0,0,1,2.15-3.42c1.45-.54,2.34.06,3,1.31C234.22,427.66,234.19,428.08,234.3,428.33Z"/><path class="cls-4" d="M211.07,430a4.57,4.57,0,0,1,3.16-1.07c1.89.14,4.05.73,4.66,2.7.89,2.81,1,5.83,1.67,8.7-4.12.42-8.36.21-12.49.36h-.17c-2-.21-3.89-.83-4.56-2.78-.42-1.23.52-1.77,1.23-2.51-.24,0-.89,0-1,0h-.19c-1.3-.16-2.83-.47-3.13-1.9s1.16-1.86,2.29-2.09h.12l2.88-.1a20.44,20.44,0,0,1-.4-2.07c0-1.51,1-2.05,2.44-2.12a3.58,3.58,0,0,1,3.31,2A7.49,7.49,0,0,1,211.07,430Z"/><path class="cls-4" d="M280.11,421.62c.79-1.05,1.61-2.07,3-2.24,2.25-.26,3.87.39,4.53,2.78.95,3.41,1.31,7.23,2.12,10.73-4,.81-7.95,1.71-11.9,2.76l-.16,0c-2,.15-3.72-.3-4.38-2.4-.42-1.32.35-2.35,1-3.43l-1,.29-.17.05c-1.36.14-2.62-.06-2.94-1.57s.74-2.47,2-3.12l.11,0c.88-.26,1.78-.51,2.66-.79-.09-.78-.45-1.69-.46-2.45a2.9,2.9,0,0,1,2.21-3,2.38,2.38,0,0,1,3.12,1.43A10,10,0,0,1,280.11,421.62Z"/><path class="cls-4" d="M289.59,400.28c.7-1.08,1.57-2.09,2.91-2.09,2.14,0,3.83.45,4.57,2.64,1.05,3.14,1.44,6.7,2.21,9.95-3.93,1.29-7.95,2.23-11.84,3.59l-.16.05c-2.07.34-3.79-.05-4.49-2.19-.43-1.35.4-2.36,1-3.44l-1,.33-.17.05c-1.38.16-2.7.25-3-1.35s.88-2.52,2.05-3.35l.11-.06c.87-.34,1.8-.61,2.69-.91-.08-.78-.47-1.69-.47-2.46a3,3,0,0,1,2.26-3,2.25,2.25,0,0,1,3.09,1.28C289.49,399.57,289.48,400,289.59,400.28Z"/><path class="cls-4" d="M242.59,404.25c.69-1.19,1.16-2.62,2.7-3,2.46-.6,3.86.23,4.59,2.84,1.05,3.73,1.72,7.94,2.67,11.76-3.85,1.45-7.64,3-11.41,4.59l-.15.06c-2.11.42-3.61-.11-4.27-2.3-.41-1.38.27-2.69.83-3.93l-.9.43c-.14.07-.13.07-.16.07-1.43.33-2.6,0-2.92-1.59a3.69,3.69,0,0,1,1.75-3.8l.11-.05c.83-.35,1.67-.71,2.47-1.13-.12-.87-.53-2-.58-2.85-.09-1.68.39-3.11,1.9-3.81s2.47.17,3.09,1.53C242.43,403.35,242.49,404,242.59,404.25Z"/><path class="cls-4" d="M220.13,407.93c.66-1.13,1.26-2.55,2.73-2.8,2.36-.42,3.88.15,4.66,2.75,1.1,3.7,1.74,8.13,2.61,12-3.78,1.56-7.61,3.45-11.55,4.45a.45.45,0,0,1-.16,0,4.21,4.21,0,0,1-4.58-3.42c-.43-1.47.3-2.49.93-3.72-.22.07-.83.2-1,.23l-.18,0a3.23,3.23,0,0,1-3.21-2.56c-.34-1.61.61-2.54,2-3.17l.12,0a22.35,22.35,0,0,0,2.7-.58c-.13-.89-.57-2.12-.62-2.95-.11-1.69.42-2.92,2-3.4s2.6.53,3.24,1.94C220,407,220,407.63,220.13,407.93Z"/><path class="cls-4" d="M195.82,406.35c.87-.94,1.61-1.94,3.1-1.8,2.39.23,4.13.85,4.94,3.52,1.15,3.82,1.72,8.4,2.62,12.41-4.31.09-8.6.09-12.89,0h-.18c-2.27-.44-4.12-1.52-4.83-3.75-.44-1.42.35-2.07,1.13-3-.24,0-.89,0-1.06,0h-.19c-1.55-.33-2.92-1-3.25-2.6s.78-2.32,2.18-2.67h.12c1,0,1.94,0,2.89,0-.09-.83-.52-1.92-.52-2.7a2.35,2.35,0,0,1,2.3-2.7,3.26,3.26,0,0,1,3.38,2.29C195.68,405.51,195.72,406.05,195.82,406.35Z"/><path class="cls-4" d="M265.76,403.31a4.44,4.44,0,0,1,3-2.13c2-.17,3.9.09,4.72,2.21,1.19,3,1.49,6.81,2.33,10-4,1.14-7.9,2.37-11.85,3.55l-.16,0c-2.07.21-3.74-.25-4.46-2.34-.45-1.32.28-2.31.89-3.4-.21.07-.8.23-.95.27l-.16,0c-1.41.11-2.64-.16-3-1.66s.62-2.43,1.84-3.11l.11,0c.87-.32,1.78-.57,2.67-.83-.12-.78-.56-1.77-.62-2.51a2.31,2.31,0,0,1,2.09-2.7,2.92,2.92,0,0,1,3.3,1.6C265.61,402.6,265.64,403.05,265.76,403.31Z"/><path class="cls-4" d="M249.4,378.72c.56-1.12,1.3-2.24,2.67-2.3,2.19-.11,3.91.27,4.81,2.57,1.27,3.29,2.14,7.27,3.2,10.73-3.63,2-7.45,3.5-11.14,5.32l-.15.06c-2.29.54-3.76-.09-4.55-2.39-.51-1.46.06-2.78.59-4.14-.2.11-.76.37-.91.44l-.16.07c-1.55.24-2.65-.21-3.09-1.81a3.28,3.28,0,0,1,1.54-3.75l.11,0c.83-.35,1.68-.68,2.49-1.09-.19-.88-.66-2.16-.78-3-.24-1.64.14-3,1.73-3.4s2.51.28,3.29,1.62C249.21,377.9,249.26,378.44,249.4,378.72Z"/><path class="cls-4" d="M204.43,385c.76-1,1.4-2.13,2.83-2.2,2.31-.11,3.82,0,4.71,2.63,1.27,3.77,2.11,8.3,3.17,12.25a71.19,71.19,0,0,1-12,2.44H203c-2.39-.14-4-1.1-4.78-3.41-.48-1.46.19-2.4.88-3.59l-1,.15-.17,0c-1.53-.13-2.81-.59-3.18-2.18s.61-2.48,2-3.06l.12,0c.88-.15,1.79-.24,2.67-.41-.15-.83-.6-2-.66-2.77-.14-1.6.43-2.69,2-2.95s2.61.7,3.3,2C204.28,384.23,204.32,384.73,204.43,385Z"/><path class="cls-4" d="M180.45,383.07c.86-.91,1.6-1.85,3-1.71,2.29.21,4,.91,4.82,3.42,1.13,3.58,1.75,7.84,2.68,11.58-4.24.38-8.44.46-12.67.58h-.18a5.25,5.25,0,0,1-4.78-3.73c-.45-1.44.27-2.23,1.05-3.29-.24,0-.88,0-1,0h-.18c-1.52-.29-2.84-.9-3.13-2.49s.79-2.28,2.16-2.64h.12l2.79-.1c-.07-.8-.45-1.86-.44-2.63a2.12,2.12,0,0,1,2.32-2.41,3.41,3.41,0,0,1,3.23,2.36C180.35,382.31,180.36,382.77,180.45,383.07Z"/><path class="cls-4" d="M155.88,378.28c1-.84,1.74-1.64,3.19-1.39,2.33.4,4.05,1.29,4.73,3.86,1,3.67,1.4,7.85,2.18,11.63-4.26.19-8.53.09-12.79.23H153c-2.34-.35-4.08-1.43-4.65-3.77-.36-1.48.43-2.27,1.2-3.35-.23,0-.85,0-1,0h-.18c-1.56-.31-2.81-1-3.06-2.67s.79-2.34,2.23-2.71h.12c.92-.06,1.87-.08,2.79-.15-.06-.85-.4-2-.38-2.78,0-1.62.82-2.5,2.42-2.48a3.4,3.4,0,0,1,3.2,2.48C155.81,377.5,155.79,378,155.88,378.28Z"/><path class="cls-4" d="M227.08,382.5c.62-1.11,1.09-2.6,2.51-3,2.27-.59,3.71-.3,4.66,2.34,1.37,3.76,2.32,8.59,3.43,12.62-3.67,1.73-7.38,3.33-11.07,5a.53.53,0,0,1-.15.05c-2.34.33-3.79-.59-4.56-2.85-.49-1.42.08-2.68.65-4l-.92.36-.16.06a2.53,2.53,0,0,1-3.12-2c-.4-1.6.37-2.73,1.67-3.61l.1,0c.83-.32,1.67-.66,2.48-1-.16-.85-.64-2-.73-2.79a3.26,3.26,0,0,1,1.74-3.63c1.45-.72,2.47,0,3.15,1.36C226.89,381.62,227,382.21,227.08,382.5Z"/><path class="cls-4" d="M232.73,357.63c.59-1,1-2.47,2.4-2.73,2.21-.42,3.72-.1,4.7,2.41,1.41,3.6,2.57,8.24,4,12a65.82,65.82,0,0,0-10.93,4.3l-.15.05c-2.19.54-3.61-.05-4.48-2.24-.54-1.39,0-2.78.43-4.13l-.84.47-.15.08c-1.17.26-2.45.5-2.91-.9s.4-3,1.35-4l.1-.06c.77-.43,1.57-.85,2.31-1.34-.17-.79-.66-1.8-.76-2.55a3,3,0,0,1,1.6-3.43c1.32-.69,2.32-.11,3,1.08C232.54,356.89,232.62,357.39,232.73,357.63Z"/><path class="cls-4" d="M189.57,363.66c.81-.91,1.46-2,2.85-2,2.23,0,3.73.66,4.48,3.06,1.08,3.42,1.69,7.52,2.64,11.09a86.54,86.54,0,0,1-11.77,1.74.51.51,0,0,1-.17,0,4.94,4.94,0,0,1-4.61-3.53c-.41-1.38.28-2.17,1-3.23l-1,.09h-.17c-1.47-.18-2.7-.77-3-2.29s.65-2.33,2-2.72h.11c.87-.05,1.78-.09,2.65-.15-.09-.78-.45-1.76-.46-2.51a2.17,2.17,0,0,1,2.2-2.47,2.77,2.77,0,0,1,3,1.88A8.45,8.45,0,0,1,189.57,363.66Z"/><path class="cls-4" d="M166.15,360.25c.89-.81,1.65-1.6,3-1.41,2.17.31,3.92.94,4.56,3.4.92,3.51,1.38,7.6,2.23,11.22-4.11,0-8.21.09-12.31.09l-.16,0c-2.25-.49-3.92-1.63-4.54-3.86-.39-1.41.33-2.09,1.13-3.06l-1,0-.18,0c-1.5-.36-2.76-1.07-3-2.65s.81-2.18,2.18-2.43h.12c.89,0,1.82.12,2.72.15,0-.78-.39-1.82-.34-2.56A2,2,0,0,1,163,357a3.31,3.31,0,0,1,3,2.25A8.29,8.29,0,0,1,166.15,360.25Z"/><path class="cls-4" d="M142.38,354.29c1-.68,1.78-1.4,3.13-1.09,2.17.49,3.91,1.19,4.5,3.71.84,3.6,1.09,7.77,1.71,11.5-4.15-.25-8.3-.39-12.44-.52h-.17a5.36,5.36,0,0,1-4.39-4.22c-.3-1.46.47-2.14,1.32-3.11l-1-.08-.18,0c-1.51-.45-2.75-1.27-2.93-2.89s.91-2.2,2.32-2.43h.12c.89.07,1.82.16,2.72.21,0-.8-.36-1.84-.32-2.59.08-1.53.94-2.11,2.42-2a3.58,3.58,0,0,1,3,2.52C142.33,353.59,142.31,354,142.38,354.29Z"/><path class="cls-4" d="M212,363.36c.6-.91,1.46-2.14,2.58-2.31,1.8-.26,3.46-.58,4.28,1.59,1.16,3.1,1.95,7.32,3,10.64a105.17,105.17,0,0,1-11,4.53l-.15.05c-2.19.31-3.74-.44-4.48-2.54-.46-1.33.23-2.26.76-3.4l-.88.32c-.14.05-.13,0-.16,0-1.41,0-2.68-.46-3-1.92s.64-2.22,1.82-2.81l.1,0c.81-.25,1.64-.53,2.44-.84-.12-.75-.51-1.74-.54-2.46a2.74,2.74,0,0,1,1.95-2.84,2.18,2.18,0,0,1,3,1.09C211.91,362.71,211.93,363.12,212,363.36Z"/><path class="cls-4" d="M185.65,425.22c1-.84,1.78-1.58,3.23-1.43,2.31.23,4.21,1.24,4.92,3.59,1,3.36,1.32,6.83,2.16,10.22-4.36.1-8.7,0-13.05,0h-.17c-2.14-.34-4-1.18-4.71-3.3-.42-1.34.43-2,1.13-2.88-.22,0-.86,0-1,0s-.15,0-.18,0c-1.48-.26-2.93-.78-3.26-2.36s.94-2.16,2.26-2.45h.13c1,0,1.95,0,2.92,0a24.93,24.93,0,0,1-.45-2.48c.06-1.56,1-2.22,2.51-2.24a3.51,3.51,0,0,1,3.36,2.34C185.55,424.5,185.56,424.93,185.65,425.22Z"/><path class="cls-4" d="M134.38,419.15a4.33,4.33,0,0,1,3.31-2.06c2.32,0,4.25.65,4.94,3.11,1,3.51,1.28,7.36,2.19,10.92-4.37.72-8.71,1.42-13,2.35l-.18,0c-2.2.12-4.07-.36-4.79-2.6-.46-1.41.44-2.33,1.16-3.4l-1,.22-.19,0c-1.44,0-2.89-.16-3.18-1.8s1-2.61,2.33-3.28l.12,0c.94-.25,1.93-.43,2.88-.65a25.77,25.77,0,0,1-.41-2.69,3,3,0,0,1,2.46-3.12,2.63,2.63,0,0,1,3.24,1.86C134.31,418.35,134.28,418.85,134.38,419.15Z"/><path class="cls-4" d="M109.55,420.22c.82-1.1,1.76-2.38,3.23-2.56,2.37-.29,4,.23,4.6,2.81.85,3.69,1.16,7.9,2,11.67-4.29,1.36-8.57,2.71-12.76,4.32a1.77,1.77,0,0,1-.17.06c-2.32.43-4.1-.19-4.68-2.64-.36-1.54.5-2.77,1.22-4-.23.09-.86.3-1,.35l-.18,0c-1.62.08-2.82-.42-3-2.17s.91-2.84,2.38-3.61l.12,0c.91-.26,1.85-.5,2.76-.79,0-.9-.27-2.09-.22-2.94a3.47,3.47,0,0,1,2.52-3.44c1.62-.48,2.55.37,3.08,1.83C109.51,419.36,109.46,419.91,109.55,420.22Z"/><path class="cls-4" d="M85.91,420.09c.91-.89,1.67-2.17,3.16-2.06,2.39.18,3.81.64,4.19,3.51.52,4.1.61,9.14,1.22,13.41a91.81,91.81,0,0,1-12.65,2,.55.55,0,0,1-.18,0c-2.78-.5-4-2.22-4.21-4.95a5.48,5.48,0,0,1,1.63-4.12l-1-.08-.17,0c-1.39-.54-2.64-1.25-2.72-2.85s1.12-2.39,2.5-2.87l.12,0c.89,0,1.82,0,2.71-.08,0-.85-.17-2-.09-2.83.15-1.62.85-2.71,2.5-2.8s2.53,1,2.91,2.55C85.91,419.24,85.86,419.78,85.91,420.09Z"/><path class="cls-4" d="M160,421.08c.92-.93,1.8-1.74,3.23-1.64,2.29.15,4.19.94,4.92,3.33,1.05,3.42,1.44,7.13,2.28,10.62-4.37.18-8.72.41-13.07.79h-.17c-2.18-.15-4.12-.87-4.82-3-.44-1.36.48-2.08,1.2-3l-1.05.11h-.19c-1.48-.13-2.94-.58-3.25-2.16s1-2.27,2.3-2.65l.12,0c1-.07,2-.11,2.93-.22-.08-.82-.47-1.81-.48-2.6a2.37,2.37,0,0,1,2.44-2.61,3.28,3.28,0,0,1,3.4,2.08C159.9,420.35,159.88,420.79,160,421.08Z"/><path class="cls-4" d="M170.8,442.32a4.26,4.26,0,0,1,3.29-1.42c2.17.16,4.12.85,4.86,3.08,1.07,3.19,1.41,6.58,2.19,9.84-4.3.11-8.58.38-12.85.72h-.17c-2.16-.18-4-.87-4.79-3-.5-1.33.37-2,1.14-2.89l-1.06.07h-.18c-1.43-.18-2.94-.57-3.28-2.11s1-2.1,2.29-2.41h.12l2.92-.17a22.3,22.3,0,0,1-.51-2.34c0-1.52.91-2.26,2.41-2.37a3.31,3.31,0,0,1,3.4,2C170.71,441.64,170.69,442,170.8,442.32Z"/><path class="cls-4" d="M120,442a5.38,5.38,0,0,1,3.14-2.49c2.2-.42,4.06-.08,4.93,2.15a69.06,69.06,0,0,1,2.57,10.09c-4.11,1.31-8.16,2.81-12.14,4.43a.71.71,0,0,1-.16.07c-1.86.45-3.74.5-4.66-1.45-.58-1.23.21-2.44.71-3.52l-1,.47-.17.08c-1.37.39-2.7.52-3.2-1.08s.6-2.83,1.79-3.79l.12-.06c.89-.43,1.84-.84,2.76-1.23a24.23,24.23,0,0,1-.64-2.47,3.36,3.36,0,0,1,2.23-3.5,2.52,2.52,0,0,1,3.43,1.29C119.89,441.25,119.87,441.71,120,442Z"/><path class="cls-4" d="M95.71,448c.47-1.38,1.2-3.07,2.68-3.53,2.37-.74,4-.47,5,2.06,1.37,3.62,2.25,7.85,3.6,11.56q-5.16,4.21-10.33,8.39a.41.41,0,0,1-.14.1c-2,.94-3.64,1-4.68-1.25-.66-1.43-.2-3.07.17-4.53l-.84.64c-.14.11-.12.1-.15.11-1.55.51-2.69.12-3.21-1.53A5.2,5.2,0,0,1,89,455.28a.36.36,0,0,1,.09-.08c.76-.6,1.56-1.15,2.32-1.76-.28-1-.82-2.56-1-3.53-.35-2-.19-4,1.55-5s2.66.28,3.39,1.76C95.49,447,95.56,447.67,95.71,448Z"/><path class="cls-4" d="M74.08,457.09a8.51,8.51,0,0,1,2.58-3.76c2.13-1.46,3.75-1.14,4.68,1.55,1.32,3.83,2.36,8.32,3.88,12.21-3.7,1.7-7.31,3.57-11,5.37l-.15.06c-2,.51-3.71.36-4.7-1.63-.63-1.25,0-2.46.43-3.64l-.89.46-.16.07c-1.33.35-2.61.38-3.16-1.09s.35-2.63,1.46-3.56l.1-.06c.81-.45,1.64-.89,2.44-1.35-.22-.79-.68-1.7-.82-2.48a3.53,3.53,0,0,1,1.67-3.75,2.13,2.13,0,0,1,3.25.56A6.05,6.05,0,0,1,74.08,457.09Z"/><path class="cls-4" d="M145.32,440.29a4.23,4.23,0,0,1,3.16-1.86c2.23,0,4.17.56,5,2.82,1.15,3.22,1.44,6.72,2.33,10-4.3.51-8.55,1.14-12.79,1.92l-.18,0c-2,.1-4-.34-4.74-2.39-.49-1.29.42-2.1,1.08-3.05l-1,.21-.18,0c-1.42,0-2.88-.27-3.24-1.8s.89-2.31,2.15-2.8l.12,0c.95-.18,1.93-.35,2.87-.54-.1-.78-.5-1.62-.52-2.4a2.68,2.68,0,0,1,2.46-2.77,2.8,2.8,0,0,1,3.31,1.65C145.23,439.59,145.21,440,145.32,440.29Z"/><path class="cls-4" d="M170.53,402.23c1-.89,1.78-1.67,3.25-1.51,2.36.25,4.19,1.08,4.92,3.61,1.05,3.63,1.5,7.69,2.36,11.41-4.37.09-8.74.12-13.09.22a1.07,1.07,0,0,1-.18,0c-2.3-.34-4.13-1.32-4.81-3.6-.42-1.43.39-2.15,1.18-3.14l-1.06,0h-.19c-1.5-.22-2.89-.76-3.17-2.36s.9-2.29,2.26-2.67h.12c.95-.05,1.93-.09,2.89-.16-.08-.82-.47-1.85-.46-2.64a2.37,2.37,0,0,1,2.44-2.6,3.32,3.32,0,0,1,3.33,2.34C170.44,401.46,170.44,401.93,170.53,402.23Z"/><path class="cls-4" d="M120.75,396.09c.82-1,1.65-2.27,3.16-2.27,2.43,0,4,.71,4.59,3.41.79,3.85,1.1,8.33,1.72,12.32-4.25.95-8.48,1.9-12.67,3l-.18,0c-2.34.08-3.93-.72-4.4-3.14-.29-1.52.6-2.69,1.33-3.91l-1,.28-.17,0c-1.58,0-2.69-.49-2.85-2.19a3.52,3.52,0,0,1,2.26-3.6l.11,0c.91-.23,1.84-.44,2.75-.69,0-.9-.29-2.14-.25-3,.09-1.72.74-3,2.39-3.49s2.56.58,3,2.05C120.7,395.18,120.68,395.77,120.75,396.09Z"/><path class="cls-4" d="M97.31,396.68c.84-1,1.58-2.47,3.09-2.61,2.43-.22,3.84.38,4.33,3.17.69,4,.76,8.81,1.21,13-4,1.13-8.08,2-12.14,2.92a.34.34,0,0,1-.16,0c-2.33-.07-3.75-1.05-4.12-3.42-.24-1.49.57-2.64,1.35-3.8l-1,.2-.17,0c-1.57-.09-2.66-.75-2.8-2.4s.9-2.62,2.31-3.27l.12,0c.89-.19,1.8-.38,2.68-.62,0-.9-.3-2.13-.25-3,.1-1.73.8-3,2.44-3.44s2.5.59,3,2.06C97.28,395.78,97.24,396.37,97.31,396.68Z"/><path class="cls-4" d="M74,395.9c.84-1,1.64-2.09,3.11-2,2.34.18,3.86.7,4.31,3.39.64,3.84.72,8.3,1.14,12.27-4.07.33-8.11.64-12.18.61a.4.4,0,0,1-.16,0c-2.1-.45-3.73-1.32-4.12-3.56-.25-1.41.61-2.34,1.42-3.34l-1,.07h-.17c-1.42-.19-2.64-.71-2.77-2.27s1-2.31,2.34-2.74H66c.9-.09,1.82-.15,2.72-.25,0-.83-.26-1.86-.21-2.65.12-1.61.82-2.82,2.46-3.07s2.47.89,2.88,2.36C74,395,73.94,395.59,74,395.9Z"/><path class="cls-4" d="M145.27,398.1c.94-.91,1.76-1.81,3.23-1.64,2.37.26,4.16,1.09,4.81,3.68.92,3.69,1.36,7.8,2.13,11.58-4.33.26-8.62.76-12.92,1.22h-.17c-2.33-.21-4.13-1.12-4.74-3.46-.38-1.48.44-2.41,1.21-3.51-.23,0-.88.12-1,.15s-.15,0-.18,0c-1.55-.1-2.85-.59-3.1-2.26s.81-2.63,2.27-3.18a.35.35,0,0,1,.12,0c1-.12,1.93-.17,2.88-.28-.05-.86-.4-2-.39-2.82a2.57,2.57,0,0,1,2.43-2.87c1.65-.2,2.69.79,3.27,2.28C145.19,397.28,145.19,397.79,145.27,398.1Z"/><path class="cls-4" d="M131.51,373.05c.83-1,1.63-2.07,3.13-1.75,2.4.51,4.05,1.41,4.63,4.13.82,3.88,1.15,8.37,1.81,12.38-4.2.35-8.4.55-12.55,1.16a.52.52,0,0,1-.17,0,4.32,4.32,0,0,1-4.39-3.8,5,5,0,0,1,1.22-3.95c-.23,0-.85.09-1,.11l-.17,0c-1.64-.13-2.74-.89-2.94-2.58a3,3,0,0,1,2.22-3.37h.12c.9-.07,1.83-.09,2.73-.19,0-.91-.35-2.27-.32-3.11.05-1.72.67-2.95,2.41-3.08s2.63,1.21,3.11,2.75C131.44,372.1,131.44,372.72,131.51,373.05Z"/><path class="cls-4" d="M84.64,373c.84-1,1.63-2.29,3.1-2.48,2.36-.31,3.86.14,4.39,2.89.76,3.92,1,8.67,1.52,12.78-4,1.13-8,2.05-12,2.95a1.22,1.22,0,0,1-.17,0c-2.35-.08-3.84-1.07-4.4-3.41-.35-1.47.46-2.56,1.24-3.71l-1,.21-.17,0c-1.52-.05-2.74-.59-2.92-2.22s.93-2.61,2.29-3.29l.12,0c.89-.21,1.8-.4,2.69-.63,0-.86-.33-2-.29-2.8A3.19,3.19,0,0,1,81.49,370c1.56-.44,2.51.37,3,1.81C84.6,372.12,84.56,372.66,84.64,373Z"/><path class="cls-4" d="M61.18,373.1c.89-.94,1.73-2,3.15-2.11,2.28-.14,3.92.36,4.36,2.94.63,3.69.79,7.86,1.17,11.66-4,.53-8.08,1-12.14,1.22h-.16c-2-.27-3.63-1.09-4.13-3.13-.31-1.28.57-2,1.28-2.86l-1,.15-.17,0c-1.3-.06-2.65-.28-2.83-1.77s1-2.27,2.29-2.74l.11,0c.91-.15,1.84-.3,2.73-.52,0-.81-.27-1.8-.21-2.58a3.13,3.13,0,0,1,2.48-3,2.23,2.23,0,0,1,2.94,1.73A9.11,9.11,0,0,1,61.18,373.1Z"/><path class="cls-4" d="M37.73,373.39a4.46,4.46,0,0,1,3.07-1.59c2,0,3.79.43,4.34,2.58.77,3.07.82,6.42,1.34,9.56-4,.52-8,.95-12,1.36h-.16c-2-.12-3.67-.76-4.18-2.79-.32-1.28.55-1.94,1.27-2.79l-1,.1h-.17c-1.3-.12-2.61-.47-2.8-1.91s1-2,2.23-2.38h.12c.88-.09,1.79-.17,2.68-.27a21.43,21.43,0,0,1-.25-2.23,2.43,2.43,0,0,1,2.43-2.31,2.63,2.63,0,0,1,3,1.76A8.87,8.87,0,0,1,37.73,373.39Z"/><path class="cls-4" d="M107.87,371c.84-1.06,1.48-2.64,3.06-2.8,2.53-.26,3.92.71,4.43,3.57.72,4.09,1,9.16,1.57,13.46-4,1.1-8,2.11-12,3.28a.59.59,0,0,1-.17,0c-2.4.08-3.75-.92-4.23-3.34-.29-1.52.45-2.85,1.2-4.12l-1,.32-.17.05c-1.56.09-2.65-.4-2.85-2.09a3.78,3.78,0,0,1,2.18-3.74.23.23,0,0,1,.11,0c.88-.3,1.79-.58,2.66-.91,0-.91-.34-2.13-.32-3a3.67,3.67,0,0,1,2.34-3.68c1.6-.6,2.5.33,3,1.8C107.82,370.13,107.8,370.72,107.87,371Z"/><path class="cls-4" d="M193,344.25a4.18,4.18,0,0,1,2.88-1.75c2-.06,3.69.32,4.33,2.51.92,3.14,1.22,6.69,2,9.92-3.82.83-7.65,1.44-11.48,2.1l-.16,0c-2,0-3.65-.78-4.26-2.8-.38-1.28.38-2,1-3l-.94.14-.16,0c-1.36-.16-2.6-.68-2.85-2.12s.79-2.05,2-2.39l.11,0a22.29,22.29,0,0,0,2.56-.39c-.06-.74-.41-1.63-.39-2.34a2.33,2.33,0,0,1,2.19-2.44,2.55,2.55,0,0,1,2.95,1.61A9,9,0,0,1,193,344.25Z"/><path class="cls-4" d="M147.19,336.51c.94-.74,1.79-1.4,3.09-1.16,2.1.38,3.81,1.17,4.33,3.51.73,3.34.95,7.06,1.59,10.47-4.07-.26-8.12-.58-12.17-.89l-.16,0c-2.11-.5-3.77-1.63-4.27-3.75-.32-1.34.5-1.82,1.26-2.66-.21,0-.82,0-1-.05h-.17c-1.35-.45-2.65-1.14-2.82-2.64s1-1.83,2.26-1.9h.11c.87.11,1.79.15,2.67.19,0-.74-.31-1.63-.24-2.34a2,2,0,0,1,2.42-2,3.12,3.12,0,0,1,2.93,2.25C147.15,335.82,147.12,336.23,147.19,336.51Z"/><path class="cls-4" d="M124,330.88c.94-.76,1.78-1.46,3.11-1.32,2.13.22,3.8,1,4.28,3.34.69,3.3.78,6.82,1.27,10.17-4-.36-8.05-.45-12.08-.64h-.16c-1.94-.42-3.65-1.2-4.14-3.22-.31-1.27.54-1.87,1.29-2.68-.22,0-.83,0-1,0h-.17c-1.23-.13-2.62-.2-2.82-1.66s1-2.2,2.3-2.57H116l2.69,0c0-.71-.29-1.52-.22-2.21a2.23,2.23,0,0,1,2.46-2.13,2.88,2.88,0,0,1,2.93,2A9.06,9.06,0,0,1,124,330.88Z"/><path class="cls-4" d="M100.47,330.07a5,5,0,0,1,3.08-1.86c2-.19,3.78,0,4.36,2.14.83,3,.87,6.35,1.37,9.47-4.06,1.13-8.14,2.12-12.2,3.2l-.16,0c-2,.19-3.71-.15-4.21-2.25-.32-1.33.61-2.23,1.3-3.21-.21.07-.83.23-1,.27l-.17,0c-1.3.08-2.65-.06-2.84-1.57s1-2.38,2.3-3l.11,0c.9-.24,1.83-.47,2.73-.72,0-.74-.3-1.59-.24-2.32a2.78,2.78,0,0,1,2.45-2.61,2.39,2.39,0,0,1,3,1.49C100.45,329.43,100.37,329.81,100.47,330.07Z"/><path class="cls-4" d="M170.29,341.73c.87-.78,1.68-1.53,3-1.39,2.06.22,3.75.8,4.33,3.11.83,3.3,1.17,7.1,1.9,10.49-4,.21-8,.13-12,.22h-.16c-2.11-.31-3.66-1.29-4.2-3.38-.33-1.32.42-1.9,1.14-2.81a7.9,7.9,0,0,1-.95,0l-.17,0c-1.38-.37-2.59-1.05-2.83-2.52s.87-1.92,2.11-2.09h.11a22.92,22.92,0,0,0,2.62,0,22.65,22.65,0,0,1-.33-2.38,2.08,2.08,0,0,1,2.3-2.14,2.87,2.87,0,0,1,2.94,2C170.23,341.06,170.21,341.46,170.29,341.73Z"/><path class="cls-4" d="M118.7,347.78c1-.66,1.84-1.36,3.16-1,2.12.48,3.78.95,4.33,3.49.78,3.63.89,7.95,1.41,11.74a77,77,0,0,0-12.14.71l-.16,0c-2.34-.18-3.81-1-4.28-3.4-.3-1.54.48-2.78,1.26-4-.23,0-.84.21-1,.26l-.17.05c-1.31.14-2.66,0-2.83-1.53s1-2.4,2.31-3l.12,0c.89-.32,1.81-.64,2.7-1a22.44,22.44,0,0,1-.17-2.3,2.91,2.91,0,0,1,2.46-2.73c1.45-.33,2.39.57,2.87,1.89A7.24,7.24,0,0,1,118.7,347.78Z"/><path class="cls-4" d="M72.2,351c.78-.95,1.66-2.21,3-2.23,2.2,0,3.83.27,4.36,2.81.75,3.61.86,7.89,1.42,11.64-4,1-8.05,1.94-12.06,2.9a.55.55,0,0,1-.17,0c-2.34,0-3.77-1-4.2-3.33-.26-1.46.52-2.42,1.29-3.52l-1,.2-.17,0c-1.46,0-2.65-.5-2.81-2.09s.9-2.5,2.25-3.1l.11,0c.89-.18,1.81-.35,2.7-.55,0-.83-.29-1.89-.25-2.68a3,3,0,0,1,2.39-3.12c1.56-.36,2.47.54,2.94,2C72.14,350.15,72.11,350.66,72.2,351Z"/><path class="cls-4" d="M78.88,330.83A4.93,4.93,0,0,1,82,329.05c2-.12,3.82.07,4.34,2.34.75,3.25.75,6.88,1.33,10.21-4,1-8,2-12,2.78l-.16,0c-2.09-.11-3.71-.87-4.3-3-.37-1.32.49-2.14,1.2-3.08l-1,.13-.17,0c-1.35-.1-2.71-.52-2.88-2s1-2.22,2.28-2.66l.11,0c.9-.14,1.83-.31,2.72-.5,0-.76-.27-1.68-.22-2.41a2.65,2.65,0,0,1,2.46-2.51,2.53,2.53,0,0,1,3,1.56C78.85,330.21,78.79,330.58,78.88,330.83Z"/><path class="cls-4" d="M55.37,329.77a4.28,4.28,0,0,1,3.07-1.53c2.06.09,3.8.55,4.33,2.82.75,3.25.75,6.86,1.24,10.2-4,.1-8,.3-11.92.57h-.16c-2-.19-3.66-.91-4.17-2.94-.31-1.29.54-1.95,1.27-2.8l-1,.07h-.17c-1.31-.16-2.6-.56-2.79-2s1-2,2.22-2.37h.12c.88-.06,1.79-.13,2.67-.21,0-.73-.3-1.57-.24-2.28A2.34,2.34,0,0,1,52.27,327a2.7,2.7,0,0,1,2.95,1.83C55.33,329.12,55.29,329.5,55.37,329.77Z"/><path class="cls-4" d="M95.35,349.93c.71-1.06,1.71-2.28,3-2.51,2.08-.36,3.85-.37,4.38,2.07.76,3.49.8,7.53,1.37,11.13-4,1.44-7.92,3-11.9,4.37L92,365c-2.22.2-3.72-.55-4.2-2.83-.31-1.43.52-2.56,1.25-3.71l-1,.3-.17.05c-1.46.1-2.63-.28-2.81-1.88s.83-2.6,2.21-3.24a.35.35,0,0,1,.12,0c.87-.21,1.78-.41,2.65-.64,0-.8-.31-1.76-.26-2.54a3.19,3.19,0,0,1,2.39-3.07,2.13,2.13,0,0,1,3,1.45C95.3,349.18,95.25,349.65,95.35,349.93Z"/></g><g class="cls-7"><path class="cls-8" d="M.62,51.81A77.46,77.46,0,0,1,17.44,38.46a67.35,67.35,0,0,1,9.8-4.7c.86-.32,1.71-.65,2.57-.94L32.42,32c.87-.27,1.77-.45,2.66-.68s1.78-.41,2.68-.57a52.19,52.19,0,0,1,21.94.16,63.64,63.64,0,0,1,10.39,3.57c3.29,1.45,6.48,3,9.66,4.48a93.44,93.44,0,0,0,19.57,6.8c1.69.37,3.4.63,5.1,1s3.42.41,5.14.61a42.26,42.26,0,0,0,5.15.32l2.57.08c.86,0,1.72-.09,2.57-.14A69.59,69.59,0,0,0,140,43.34c6.56-2.31,13.23-5.14,20.38-6.65a63.92,63.92,0,0,1,21.71-.8A74.76,74.76,0,0,1,203,41.41c6.7,2.85,12.62,7.06,18.55,10.71a60.56,60.56,0,0,0,19,8,76.49,76.49,0,0,0,20.7,1.74,87.66,87.66,0,0,0,20.57-3.68,117.27,117.27,0,0,0,19.47-7.93,164.58,164.58,0,0,0,18.15-10.79l.58.82c-11.48,8.29-24,15.42-37.6,19.82a89.91,89.91,0,0,1-21,4.22,75.24,75.24,0,0,1-21.47-1.45,63.69,63.69,0,0,1-20-8.13c-6.14-3.69-11.89-7.66-18.28-10.27a71,71,0,0,0-20-5,61.62,61.62,0,0,0-20.46,1c-6.72,1.45-13.14,4.19-19.89,6.6-1.7.58-3.38,1.2-5.14,1.68l-2.6.77c-.88.22-1.78.41-2.66.61s-1.77.43-2.67.58l-2.71.4c-.9.11-1.8.29-2.71.35l-2.73.17c-.91,0-1.82.12-2.73.15l-2.73-.07a49.14,49.14,0,0,1-5.43-.31c-1.8-.21-3.6-.36-5.39-.62s-3.57-.6-5.34-1A97.5,97.5,0,0,1,78,42.8c-3.25-1.49-6.42-3-9.6-4.4a60.92,60.92,0,0,0-9.67-3.29l-2.47-.49c-.82-.19-1.67-.21-2.5-.32a42.62,42.62,0,0,0-5-.28c-.84-.05-1.7.08-2.54.1s-1.7.09-2.55.16c-1.69.2-3.39.37-5.07.7a70.31,70.31,0,0,0-9.93,2.57,84.9,84.9,0,0,0-9.54,4A118.58,118.58,0,0,0,1.29,52.56Z"/></g><g class="cls-7"><path class="cls-8" d="M360.93,78.55a118.24,118.24,0,0,0-17.79-11.06,84.83,84.83,0,0,0-9.54-3.95A69,69,0,0,0,323.67,61c-1.68-.33-3.38-.5-5.07-.7-.85-.07-1.7-.1-2.54-.16s-1.7-.15-2.54-.1a44.59,44.59,0,0,0-5,.27c-.84.12-1.68.14-2.5.33l-2.48.49a59,59,0,0,0-9.67,3.29c-3.17,1.38-6.35,2.91-9.6,4.4a96.91,96.91,0,0,1-20.46,7c-1.77.38-3.56.65-5.33,1s-3.6.41-5.4.62a49,49,0,0,1-5.43.31l-2.73.06c-.91,0-1.82-.1-2.73-.14l-2.73-.17c-.91-.06-1.8-.24-2.71-.36L234,76.7c-.89-.16-1.77-.39-2.66-.58s-1.78-.39-2.66-.61l-2.61-.77c-1.75-.48-3.43-1.1-5.13-1.68-6.76-2.42-13.18-5.16-19.9-6.6a61.07,61.07,0,0,0-20.46-1,70.48,70.48,0,0,0-20,5c-6.4,2.61-12.15,6.58-18.29,10.27a63.59,63.59,0,0,1-20,8.13,75.6,75.6,0,0,1-21.47,1.45,89.83,89.83,0,0,1-21-4.22C66.18,81.72,53.67,74.59,42.19,66.3l.58-.82A166.16,166.16,0,0,0,60.92,76.27,117.33,117.33,0,0,0,80.4,84.19,87,87,0,0,0,101,87.88a76.41,76.41,0,0,0,20.69-1.74,60.85,60.85,0,0,0,19-8c5.92-3.65,11.84-7.86,18.55-10.71a74,74,0,0,1,20.92-5.52,63.91,63.91,0,0,1,21.71.8c7.15,1.51,13.82,4.34,20.38,6.64a69.27,69.27,0,0,0,20.12,4.25c.86,0,1.71.11,2.57.13l2.58-.07a44.64,44.64,0,0,0,5.15-.32c1.71-.21,3.43-.35,5.14-.61s3.4-.58,5.09-1A93.44,93.44,0,0,0,282.46,65c3.18-1.48,6.37-3,9.67-4.48a63.53,63.53,0,0,1,10.38-3.57,52.24,52.24,0,0,1,21.95-.17c.9.17,1.79.34,2.68.58s1.78.41,2.65.67l2.61.83c.87.29,1.72.62,2.57.93a68.56,68.56,0,0,1,9.81,4.71A77,77,0,0,1,361.59,77.8Z"/></g><g class="cls-7"><path class="cls-8" d="M692.2,111.38a118.17,118.17,0,0,0-17.79-11,84.9,84.9,0,0,0-9.54-4,68.94,68.94,0,0,0-9.93-2.56c-1.68-.34-3.38-.51-5.07-.71-.85-.07-1.7-.1-2.54-.16s-1.7-.15-2.55-.1a42.33,42.33,0,0,0-5,.28c-.84.11-1.68.13-2.5.32l-2.48.49a60.92,60.92,0,0,0-9.67,3.29c-3.17,1.39-6.35,2.91-9.6,4.41a98.05,98.05,0,0,1-20.46,7c-1.77.37-3.56.64-5.33,1s-3.6.41-5.4.62a49,49,0,0,1-5.43.31l-2.73.07c-.91,0-1.82-.1-2.73-.15l-2.73-.17c-.91,0-1.8-.24-2.71-.35l-2.71-.4c-.89-.15-1.78-.39-2.67-.58s-1.77-.39-2.66-.61l-2.6-.77c-1.75-.48-3.43-1.1-5.13-1.68-6.76-2.41-13.18-5.15-19.9-6.6a61.59,61.59,0,0,0-20.46-1,71,71,0,0,0-20,5c-6.39,2.62-12.14,6.58-18.28,10.27a63.59,63.59,0,0,1-20,8.13,75.24,75.24,0,0,1-21.47,1.45,89.73,89.73,0,0,1-21-4.22c-13.62-4.4-26.13-11.53-37.61-19.82l.58-.82a164.58,164.58,0,0,0,18.15,10.79A117.37,117.37,0,0,0,411.67,117a87.48,87.48,0,0,0,20.56,3.68,76.45,76.45,0,0,0,20.7-1.74,60.61,60.61,0,0,0,19-8c5.92-3.65,11.84-7.86,18.55-10.7a74.38,74.38,0,0,1,20.92-5.53,63.91,63.91,0,0,1,21.71.8c7.15,1.51,13.82,4.34,20.38,6.65a69.26,69.26,0,0,0,20.12,4.24c.86,0,1.71.12,2.57.14l2.57-.08a42.55,42.55,0,0,0,5.16-.32c1.71-.2,3.43-.35,5.14-.61s3.4-.58,5.09-1a93.44,93.44,0,0,0,19.57-6.8c3.18-1.47,6.37-3,9.67-4.48a63.53,63.53,0,0,1,10.38-3.57,52.24,52.24,0,0,1,22-.16c.9.16,1.79.33,2.68.57s1.78.42,2.65.68l2.61.82c.87.29,1.72.62,2.57.94a66.86,66.86,0,0,1,9.8,4.7,77.46,77.46,0,0,1,16.82,13.35Z"/></g></g><g id="Fish"><path class="cls-9" d="M169.25,276.3A7.88,7.88,0,0,1,165,290.6H140.9V267c0-.1,0-.2,0-.3a7.88,7.88,0,0,1,14.35-4.21v-2.15c0-.07,0-.14,0-.2a5.33,5.33,0,0,1,10.66,0c0,.06,0,.13,0,.2v5.31h5.6a5.34,5.34,0,0,1,0,10.67Z"/><path class="cls-10" d="M161.37,277a2.52,2.52,0,0,1-2.43,2.52h-7.7v-7.66a2.53,2.53,0,0,1,5,0v2.61h2.65A2.53,2.53,0,0,1,161.37,277Z"/><circle class="cls-11" cx="145.18" cy="274.43" r="1.26"/><path class="cls-9" d="M102.25,276.3a7.88,7.88,0,0,0,4.28,14.3H130.6V267c0-.1,0-.2,0-.3a7.88,7.88,0,0,0-14.35-4.21v-2.15c0-.07,0-.14,0-.2a5.33,5.33,0,0,0-10.66,0c0,.06,0,.13,0,.2v5.31H100a5.34,5.34,0,0,0,0,10.67Z"/><path class="cls-10" d="M110.13,277a2.52,2.52,0,0,0,2.43,2.52h7.7v-7.66a2.53,2.53,0,0,0-5.05,0v2.61h-2.65A2.53,2.53,0,0,0,110.13,277Z"/><circle class="cls-11" cx="126.32" cy="274.43" r="1.26"/><path id="bubbles" class="cls-12" d="M119.19,94.41a2.67,2.67,0,0,1,.06,3.7l-.07.07-5.7,5.65-5.61-5.66-.07-.07a2.66,2.66,0,0,1,3.78-3.75l.07.07,1.86,1.88,1.92-1.9a.46.46,0,0,1,.07-.07A2.65,2.65,0,0,1,119.19,94.41Z"/><path class="cls-13" d="M109.86,94.74c.35.39-.69.1-1.07.45s-.23,1.36-.58,1a1.12,1.12,0,0,1,.13-1.47A1.18,1.18,0,0,1,109.86,94.74Z"/><circle class="cls-14" cx="108.68" cy="94.75" r="0.1"/><path id="bubbles-2" data-name="bubbles" class="cls-12" d="M118.81,233.13a1.7,1.7,0,0,1,0,2.36l0,0-3.64,3.6-3.58-3.61,0-.05a1.7,1.7,0,0,1,2.41-2.39l0,0,1.19,1.2,1.22-1.21,0,0A1.7,1.7,0,0,1,118.81,233.13Z"/><path class="cls-13" d="M112.85,233.34c.22.25-.44.07-.69.29s-.14.86-.36.62a.71.71,0,0,1,.08-.94A.76.76,0,0,1,112.85,233.34Z"/><circle class="cls-14" cx="112.09" cy="233.34" r="0.06"/><path id="bubbles-3" data-name="bubbles" class="cls-12" d="M127.88,213.09a2.23,2.23,0,0,1,.05,3.1l-.06.06L123.09,221l-4.72-4.75-.05-.06a2.24,2.24,0,0,1,3.17-3.15l.06.06,1.56,1.58,1.61-1.59.06-.06A2.23,2.23,0,0,1,127.88,213.09Z"/><path class="cls-13" d="M120.05,213.36c.29.33-.58.09-.9.39s-.19,1.13-.49.81a.93.93,0,0,1,.11-1.23A1,1,0,0,1,120.05,213.36Z"/><circle class="cls-14" cx="119.05" cy="213.37" r="0.08"/><path id="bubbles-4" data-name="bubbles" class="cls-12" d="M143.24,243.63a3.57,3.57,0,0,1,.07,5l-.09.1-7.63,7.57-7.53-7.59-.09-.09a3.57,3.57,0,0,1,5.06-5l.1.1,2.5,2.51,2.56-2.54.1-.09A3.56,3.56,0,0,1,143.24,243.63Z"/><path class="cls-13" d="M130.73,244.07c.47.52-.92.14-1.44.61s-.3,1.81-.77,1.29a1.49,1.49,0,0,1,.17-2A1.57,1.57,0,0,1,130.73,244.07Z"/><circle class="cls-14" cx="129.14" cy="244.08" r="0.13"/><path id="bubbles-5" data-name="bubbles" class="cls-12" d="M101.41,186.06a1.33,1.33,0,0,1,0,1.85l0,0-2.84,2.83-2.81-2.83,0,0A1.33,1.33,0,0,1,97.6,186l0,0,.93.94,1-.95,0,0A1.33,1.33,0,0,1,101.41,186.06Z"/><path class="cls-13" d="M96.74,186.22c.18.2-.34.05-.53.23s-.12.68-.29.48a.55.55,0,0,1,.06-.73A.6.6,0,0,1,96.74,186.22Z"/><circle class="cls-14" cx="96.15" cy="186.23" r="0.05"/></g><g id="Text"><path class="cls-2" d="M435,145.36c.74,0,.95,1,1.74,1.35v-9.39h5.86v-4.75h-16.5v4.75H432v9.55h.43C433.77,146.87,434,145.36,435,145.36Z"/><path class="cls-3" d="M433.61,149.77h.24c.89,0,1-.64,1.6-.64s.75.45,1.26.59v-3c-.79-.39-1-1.35-1.74-1.35-1,0-1.2,1.51-2.59,1.51H432v1.53c.45.65.92,1.37,1.66,1.37Z"/><path class="cls-4" d="M435.45,149.13c-.57,0-.71.64-1.6.64h-.24c-.74,0-1.21-.72-1.66-1.37v3.27c.45-.65.87-1.25,1.47-1.25,1.25,0,1.79,2.89,3.14,2.89h.15v-3.59C436.2,149.58,435.91,149.13,435.45,149.13Z"/><path class="cls-5" d="M433.42,150.42c-.6,0-1,.6-1.47,1.25v4.75h4.76v-3.11h-.15C435.21,153.31,434.67,150.42,433.42,150.42Z"/><path class="cls-2" d="M460.27,132.57v9.54h-7.18v-9.54h-4.75v13.87a1,1,0,0,1,.52-.18c.57,0,.71.64,1.6.64h3.23c1.13,0,1.26-1.51,2.11-1.51S457,146.9,458,146.9h2.23c1.13,0,1.56-2.41,2.53-2.41.82,0,1.2,1.53,2.23,2.15V132.57Z"/><path class="cls-3" d="M448.86,146.26a1,1,0,0,0-.52.18v3.36h1.43c1.34,0,1.81-2.41,2.86-2.41a.74.74,0,0,1,.46.18v-.67h-2.63c-.89,0-1-.64-1.6-.64Z"/><path class="cls-3" d="M462.8,144.49c-1,0-1.4,2.41-2.53,2.41h0v2.31c.39-.42.65-.91,1.18-.91,1,0,1.2,1.5,2.59,1.5h1v-3.16C464,146,463.62,144.49,462.8,144.49Z"/><path class="cls-4" d="M464.09,149.8h0c-1.39,0-1.59-1.5-2.59-1.5-.53,0-.79.49-1.18.91v4.14h.21c1.34,0,1.89-2.9,3.13-2.9.58,0,1,.55,1.42,1.18V149.8Z"/><path class="cls-4" d="M449.77,149.8h-1.43v3.41c.92-.43,1.25-1.76,2.18-1.76s1.4,1.65,2.57,1.87v-5.75a.74.74,0,0,0-.46-.18C451.58,147.39,451.11,149.8,449.77,149.8Z"/><path class="cls-5" d="M463.61,150.45c-1.24,0-1.79,2.9-3.13,2.9h-.21v3.06H465v-4.78C464.6,151,464.19,150.45,463.61,150.45Z"/><path class="cls-5" d="M450.52,151.45c-.93,0-1.26,1.33-2.18,1.76v3.2h4.75v-3.09C451.92,153.1,451.58,151.45,450.52,151.45Z"/><path class="cls-4" d="M482.89,151.67c.55.79,1.13,1.68,2.12,1.68h.29v-1.68Z"/><path class="cls-2" d="M471.51,144.5c1,0,1.38,2.41,3.16,2.41h1.51c.64,0,1-1,1.7-1s.72.82,1.69,1h.8v-4.76h-4.81v-4.79h9.74v-4.76H470.8v12.32A1,1,0,0,1,471.51,144.5Z"/><path class="cls-3" d="M474.67,146.91c-1.78,0-2.12-2.41-3.16-2.41a1,1,0,0,0-.71.39v4.92c1.44,0,1.53-1.51,2.46-1.51s1.17,1.29,2.3,1.48v-2.87Z"/><path class="cls-4" d="M475.56,149.78c-1.13-.19-1.37-1.48-2.3-1.48s-1,1.51-2.46,1.51v1.78c.78.43,1.19,1.76,2.35,1.76h1c.73,0,1-.89,1.58-.89s.72.89,1.6.89h1c.74,0,1.24-.89,1.75-1.68h-4.51Z"/><path class="cls-5" d="M485,153.35c-1,0-1.57-.89-2.12-1.68-.43-.64-.85-1.21-1.43-1.21s-1,.57-1.39,1.21c-.51.79-1,1.68-1.75,1.68h-1c-.88,0-1-.89-1.6-.89s-.85.89-1.58.89h-1c-1.16,0-1.57-1.33-2.35-1.76v4.83h14.5v-3.07Z"/><path class="cls-2" d="M500.27,156.55c2.07,0,2.75,4.81,6.32,4.81h1c1.45,0,2.06-1.27,3.15-1.27s1.43,1.27,3.2,1.27h1.46v-9.5h-9.63v-9.59h19.49v-9.51h-29v27.87c1.51-1.35,2.44-4.08,4-4.08Z"/><path class="cls-3" d="M500.27,156.55c-1.57,0-2.5,2.73-4,4.08v6.54h.25c2.86,0,3.06-3,4.92-3s2.29,2.39,4.34,2.91v-5.71h.82c-3.57,0-4.25-4.81-6.32-4.81Z"/><path class="cls-4" d="M501.43,164.16c-1.86,0-2.06,3-4.92,3h-.25v5.3c1.12,0,1.42,1.78,3.18,1.78h1.5c2.11,0,3.24-3.56,4.83-5.1v-2.08C503.72,166.55,503.2,164.16,501.43,164.16Z"/><path class="cls-5" d="M500.94,174.25h-1.5c-1.76,0-2.06-1.76-3.18-1.78v8h9.51V169.15C504.18,170.69,503.05,174.25,500.94,174.25Z"/><path class="cls-2" d="M541.09,165.47c2,0,2.39,3,5.16,3h.08V139.88h-9.51v28.55c2.25-.42,2.56-3,4.27-3Z"/><path class="cls-3" d="M540,174.29h1.29c2.86,0,3.06-3,4.92-3h.12v-2.79h-.08c-2.77,0-3.18-3-5.16-3-1.71,0-2,2.54-4.27,3V173C537.94,173,538.24,174.29,540,174.29Z"/><path class="cls-4" d="M541.29,174.29H540c-1.76,0-2.06-1.26-3.18-1.27v8.36h.28c2.69,0,3.78-5.79,6.28-5.79,1.2,0,2,1.22,3,2.54v-6.85h-.12C544.35,171.28,544.15,174.29,541.29,174.29Z"/><path class="cls-5" d="M543.38,175.59c-2.5,0-3.59,5.79-6.28,5.79h-.28v6.2h9.51v-9.45C545.43,176.81,544.58,175.59,543.38,175.59Z"/><path class="cls-2" d="M574,156.49c2.09,0,3,4.82,5.73,4.82h4.58a3.52,3.52,0,0,0,2.63-1.24c-2.91-3.71-7.93-5.93-12.25-7.84s-9.27-4.1-9.27-6.51c0-2.23,3.88-3.72,7.5-3.72a10.57,10.57,0,0,1,5.48,1.33,2.61,2.61,0,0,1,1.44,2.39h9.51a12,12,0,0,0-5.82-10.39,19.85,19.85,0,0,0-10.61-2.84,21,21,0,0,0-10.9,2.86,12,12,0,0,0-6.1,10.37c0,4,1.92,7.48,5.7,10.3a43.06,43.06,0,0,0,8.32,4.5c1.76-1.37,2.53-4,4.06-4Z"/><path class="cls-3" d="M579.85,167.08v0h1.29c3.58,0,4.26-4.81,6.32-4.81a1.65,1.65,0,0,1,1.06.43,11.43,11.43,0,0,0-1.57-2.66,3.52,3.52,0,0,1-2.63,1.24h-4.58c-2.69,0-3.64-4.82-5.73-4.82-1.53,0-2.3,2.66-4.06,4l.91.4c4,1.78,9,4,9,6.16Z"/><path class="cls-4" d="M588.52,162.73a1.65,1.65,0,0,0-1.06-.43c-2.06,0-2.74,4.81-6.32,4.81h-1.29a3.19,3.19,0,0,1-2,2.67c1.31,1.71,2.4,4.42,4.24,4.42h5a11.77,11.77,0,0,0,2.35-7.09v0a11.13,11.13,0,0,0-.84-4.35Z"/><path class="cls-4" d="M565.46,167.11v0H563.4c-1.16-.22-1.75-1.24-2.73-1.24s-1.37,1-2.7,1.24a4,4,0,0,1-.51,0H556a12.49,12.49,0,0,0,.53,3.6,2.11,2.11,0,0,1,1.06-.3c2.22,0,2.72,3.79,5.58,3.79h5.55c1.94,0,3.1-1.71,4.17-3.27h-.31C569.7,170.93,565.5,169.92,565.46,167.11Z"/><path class="cls-5" d="M582.15,174.2h-.1c-1.84,0-2.93-2.71-4.24-4.42a2.75,2.75,0,0,0-2-1.36c-1.2,0-2,1.2-2.93,2.51-1.07,1.56-2.23,3.27-4.17,3.27h-5.55c-2.86,0-3.36-3.79-5.58-3.79a2.11,2.11,0,0,0-1.06.3,11.68,11.68,0,0,0,1.75,3.49,13.35,13.35,0,0,0,3.58,3.34,20,20,0,0,0,10.72,2.9c6.38,0,11.62-2.41,14.48-6.24Z"/><path class="cls-2" d="M622.85,132.74v19.1H608.49v-19.1H599V160.5a1.89,1.89,0,0,1,1-.36c1.14,0,1.43,1.27,3.2,1.27h6.46c2.26,0,2.53-3,4.22-3s2.29,3,4.48,3h4.47c2.24,0,3.1-4.82,5-4.82,1.64,0,2.41,3.06,4.45,4.3V132.74Z"/><path class="cls-3" d="M600,160.14a1.89,1.89,0,0,0-1,.36v6.71h2.85c2.69,0,3.64-4.81,5.73-4.81a1.51,1.51,0,0,1,.93.35v-1.34h-5.27C601.45,161.41,601.16,160.14,600,160.14Z"/><path class="cls-3" d="M627.9,156.59c-1.95,0-2.81,4.82-5,4.82h0V166c.78-.84,1.3-1.82,2.36-1.82,2,0,2.4,3,5.16,3h2v-6.32c-2-1.24-2.81-4.3-4.45-4.3Z"/><path class="cls-4" d="M630.48,167.21h-.11c-2.76,0-3.17-3-5.16-3-1.06,0-1.58,1-2.36,1.82v8.28h.4c2.69,0,3.78-5.78,6.28-5.78,1.15,0,2,1.1,2.82,2.34v-3.65Z"/><path class="cls-4" d="M601.83,167.21H599V174c1.84-.87,2.49-3.52,4.35-3.52,2.13,0,2.82,3.31,5.16,3.74v-11.5a1.51,1.51,0,0,0-.93-.35C605.47,162.4,604.52,167.21,601.83,167.21Z"/><path class="cls-5" d="M629.53,168.52c-2.5,0-3.59,5.78-6.28,5.78h-.4v6.14h9.5v-9.58C631.5,169.62,630.68,168.52,629.53,168.52Z"/><path class="cls-5" d="M603.33,170.51c-1.86,0-2.51,2.65-4.35,3.52v6.41h9.51v-6.19C606.15,173.82,605.46,170.51,603.33,170.51Z"/><path class="cls-2" d="M646.17,169.84c1,0,1.2,1.51,2.58,1.51h0v-14.3H644v14.27C645.16,171.11,645.32,169.84,646.17,169.84Z"/><path class="cls-3" d="M645.63,174.25h.64c1.43,0,1.53-1.51,2.46-1.51h.06v-1.39h0c-1.38,0-1.59-1.51-2.58-1.51s-1,1.27-2.13,1.48v2.29C644.6,173.62,644.75,174.25,645.63,174.25Z"/><path class="cls-4" d="M646.27,174.25h-.64c-.88,0-1-.63-1.59-.64v4.18h.13c1.35,0,1.89-2.89,3.14-2.89.61,0,1,.61,1.48,1.27v-3.43h-.06C647.8,172.74,647.7,174.25,646.27,174.25Z"/><path class="cls-5" d="M647.31,174.9c-1.25,0-1.79,2.89-3.14,2.89H644v3.1h4.75v-4.72C648.34,175.51,647.92,174.9,647.31,174.9Z"/><path class="cls-2" d="M668.06,157.05v14.3h.88c1.79,0,2.13-2.41,3.16-2.41a1,1,0,0,1,.71.39V157.05Z"/><path class="cls-2" d="M654.55,157.05v14.13c.77-.4,1.06-1.34,1.85-1.34s1,1.51,2.46,1.51h.44V166.2l3.07,5.15h.53c.88,0,1-.64,1.6-.64s.85.64,1.58.64h1.74l-8.52-14.3Z"/><path class="cls-3" d="M672.1,168.94c-1,0-1.37,2.41-3.16,2.41h-.88v.39l-.24-.39h-1.74c-.73,0-1-.64-1.58-.64s-.72.64-1.6.64h-.53l1.73,2.9h1.67c1.39,0,1.59-1.51,2.58-1.51s1,1.51,2.46,1.51h2v-4.92A1,1,0,0,0,672.1,168.94Z"/><path class="cls-3" d="M656.4,169.84c-.79,0-1.08.94-1.85,1.34v2.1c.53-.67.89-1.44,1.48-1.44,1,0,1.51,2.41,2.86,2.41h.41v-2.9h-.44C657.43,171.35,657.33,169.84,656.4,169.84Z"/><path class="cls-4" d="M656,171.84c-.59,0-.95.77-1.48,1.44v4.51h.55c1.39,0,1.7-1.89,2.84-1.89.6,0,.95.55,1.36,1v-2.7h-.41C657.54,174.25,657.07,171.84,656,171.84Z"/><path class="cls-4" d="M670.81,174.25c-1.43,0-1.53-1.51-2.46-1.51s-1.19,1.51-2.58,1.51H664.1l1,1.69c.39-.56.79-1,1.32-1,1.25,0,1.79,2.89,3.14,2.89h1.53c.88,0,1-.89,1.6-.89h.11v-2.66Z"/><path class="cls-5" d="M672.7,176.9c-.57,0-.72.89-1.6.89h-1.53c-1.35,0-1.89-2.89-3.14-2.89-.53,0-.93.48-1.32,1l1.1,1.85,1.85,3.1h4.75v-4Z"/><path class="cls-5" d="M657.94,175.9c-1.14,0-1.45,1.89-2.84,1.89h-.55v3.1h4.75V177C658.89,176.45,658.54,175.9,657.94,175.9Z"/><path class="cls-2" d="M414.71,210.93c.74,0,1,1,1.74,1.35v-9.39h5.86v-4.76h-16.5v4.76h5.89v9.55h.43C413.51,212.44,413.72,210.93,414.71,210.93Z"/><path class="cls-3" d="M413.35,215.34h.24c.89,0,1-.64,1.61-.64s.74.45,1.25.59v-3c-.78-.39-1-1.35-1.74-1.35-1,0-1.2,1.51-2.58,1.51h-.43V214c.44.65.92,1.37,1.65,1.37Z"/><path class="cls-4" d="M415.2,214.7c-.57,0-.72.64-1.61.64h-.24c-.73,0-1.21-.72-1.65-1.37v3.27c.44-.65.86-1.25,1.46-1.25,1.25,0,1.8,2.89,3.14,2.89h.15v-3.59C415.94,215.15,415.65,214.7,415.2,214.7Z"/><path class="cls-5" d="M413.16,216c-.6,0-1,.6-1.46,1.25V222h4.75v-3.1h-.15C415,218.88,414.41,216,413.16,216Z"/><path class="cls-2" d="M440,198.13v9.55h-7.18v-9.55h-4.76V212a1,1,0,0,1,.52-.18c.57,0,.72.64,1.6.64h3.23c1.13,0,1.27-1.51,2.11-1.51s1.15,1.51,2.24,1.51H440c1.12,0,1.55-2.41,2.52-2.41.82,0,1.21,1.52,2.23,2.15V198.13Z"/><path class="cls-3" d="M428.6,211.83a1,1,0,0,0-.52.18v3.36h1.43c1.34,0,1.82-2.41,2.86-2.41a.79.79,0,0,1,.47.18v-.67H430.2c-.88,0-1-.64-1.6-.64Z"/><path class="cls-3" d="M442.54,210.06c-1,0-1.4,2.41-2.52,2.41h0v2.3c.39-.42.65-.91,1.18-.91,1,0,1.2,1.51,2.58,1.51h1v-3.16C443.75,211.58,443.36,210.06,442.54,210.06Z"/><path class="cls-4" d="M443.83,215.37h-.05c-1.38,0-1.59-1.51-2.58-1.51-.53,0-.79.49-1.18.91v4.14h.2c1.34,0,1.89-2.89,3.14-2.89.57,0,1,.55,1.41,1.17v-1.82Z"/><path class="cls-4" d="M429.51,215.37h-1.43v3.41c.92-.44,1.25-1.76,2.18-1.76s1.41,1.65,2.58,1.87v-5.75a.79.79,0,0,0-.47-.18C431.33,213,430.85,215.37,429.51,215.37Z"/><path class="cls-5" d="M443.36,216c-1.25,0-1.8,2.89-3.14,2.89H440V222h4.75v-4.79C444.34,216.57,443.93,216,443.36,216Z"/><path class="cls-5" d="M430.26,217c-.93,0-1.26,1.32-2.18,1.76V222h4.76v-3.09C431.67,218.67,431.32,217,430.26,217Z"/><path class="cls-4" d="M462.64,217.24c.54.79,1.12,1.68,2.11,1.68h.3v-1.68Z"/><path class="cls-2" d="M451.26,210.07c1,0,1.37,2.4,3.16,2.4h1.5c.64,0,1-1,1.7-1s.72.81,1.69,1h.81v-4.75H455.3V202.9h9.75v-4.76h-14.5v12.31A1,1,0,0,1,451.26,210.07Z"/><path class="cls-3" d="M454.42,212.47c-1.79,0-2.13-2.4-3.16-2.4a1,1,0,0,0-.71.38v4.93c1.43,0,1.53-1.51,2.46-1.51s1.16,1.29,2.29,1.48v-2.88Z"/><path class="cls-4" d="M455.3,215.35c-1.13-.19-1.37-1.48-2.29-1.48s-1,1.51-2.46,1.51v1.78c.77.42,1.18,1.76,2.35,1.76h1c.72,0,1-.9,1.57-.9s.72.9,1.61.9h1c.75,0,1.25-.89,1.76-1.68H455.3Z"/><path class="cls-5" d="M464.75,218.92c-1,0-1.57-.89-2.11-1.68s-.85-1.21-1.44-1.21-1,.57-1.38,1.21-1,1.68-1.76,1.68h-1c-.89,0-1-.9-1.61-.9s-.85.9-1.57.9h-1c-1.17,0-1.58-1.34-2.35-1.76V222h14.5v-3.07Z"/><path class="cls-2" d="M492,222.14c2.09,0,3,4.81,5.72,4.81h4.58a3.47,3.47,0,0,0,2.63-1.24c-2.9-3.71-7.92-5.93-12.24-7.84s-9.27-4.1-9.27-6.51c0-2.23,3.87-3.72,7.49-3.72a10.57,10.57,0,0,1,5.48,1.33,2.61,2.61,0,0,1,1.45,2.39h9.51A12.07,12.07,0,0,0,501.48,201a19.91,19.91,0,0,0-10.62-2.84A21,21,0,0,0,480,201a12,12,0,0,0-6.1,10.36c0,4,1.92,7.48,5.7,10.3a43.36,43.36,0,0,0,8.32,4.5c1.76-1.36,2.53-4,4.07-4Z"/><path class="cls-3" d="M497.79,232.72v0h1.29c3.57,0,4.25-4.82,6.32-4.82a1.62,1.62,0,0,1,1.05.43,11.1,11.1,0,0,0-1.57-2.66,3.47,3.47,0,0,1-2.63,1.24h-4.58c-2.69,0-3.63-4.81-5.72-4.81-1.54,0-2.31,2.66-4.07,4l.91.41c4,1.77,9,4,9,6.15Z"/><path class="cls-4" d="M506.45,228.37a1.62,1.62,0,0,0-1.05-.43c-2.07,0-2.75,4.82-6.32,4.82h-1.29a3.22,3.22,0,0,1-2.05,2.66c1.31,1.71,2.4,4.42,4.24,4.42h5a11.77,11.77,0,0,0,2.36-7.08v0a11.13,11.13,0,0,0-.85-4.35Z"/><path class="cls-4" d="M483.39,232.76v0h-2.06c-1.16-.21-1.75-1.24-2.73-1.24s-1.36,1-2.7,1.24a3.75,3.75,0,0,1-.5,0h-1.52a12.59,12.59,0,0,0,.54,3.6,2,2,0,0,1,1.05-.3c2.22,0,2.72,3.78,5.58,3.78h5.55c1.95,0,3.1-1.71,4.17-3.27h-.3C487.64,236.57,483.43,235.56,483.39,232.76Z"/><path class="cls-5" d="M500.09,239.84H500c-1.84,0-2.93-2.71-4.24-4.42a2.75,2.75,0,0,0-2-1.36c-1.2,0-2,1.2-2.94,2.51-1.07,1.56-2.22,3.27-4.17,3.27h-5.55c-2.86,0-3.36-3.78-5.58-3.78a2,2,0,0,0-1.05.3,11.71,11.71,0,0,0,1.74,3.48,13.09,13.09,0,0,0,3.59,3.34,19.94,19.94,0,0,0,10.72,2.9c6.38,0,11.61-2.4,14.47-6.24Z"/><path class="cls-4" d="M541.09,245.38c1.09,1.59,2.25,3.37,4.24,3.37h.58v-3.37Z"/><path class="cls-2" d="M518.33,231c2.07,0,2.75,4.82,6.32,4.82h3c1.27,0,2-2,3.39-2,1.58,0,1.44,1.62,3.38,2h1.61v-9.5h-9.63V216.7h19.49v-9.51h-29v24.63a2,2,0,0,1,1.41-.78Z"/><path class="cls-3" d="M524.65,235.86c-3.57,0-4.25-4.82-6.32-4.82a2,2,0,0,0-1.41.78v9.84c2.86,0,3.06-3,4.91-3s2.33,2.58,4.59,3v-5.75Z"/><path class="cls-4" d="M526.42,241.61c-2.26-.38-2.74-3-4.59-3s-2.05,3-4.91,3v3.56c1.55.86,2.37,3.53,4.69,3.53h2c1.46,0,2.06-1.79,3.16-1.79s1.43,1.79,3.2,1.79h2c1.49,0,2.49-1.78,3.52-3.37h-9Z"/><path class="cls-5" d="M545.33,248.75c-2,0-3.15-1.78-4.24-3.37-.87-1.27-1.7-2.42-2.87-2.42s-2,1.15-2.76,2.42c-1,1.59-2,3.37-3.52,3.37h-2c-1.77,0-2.06-1.79-3.2-1.79s-1.7,1.79-3.16,1.79h-2c-2.32,0-3.14-2.67-4.69-3.53v9.67h29v-6.14Z"/><path class="cls-5" d="M561.76,237.43c-1.63,0-3.47,2.46-5.11,2.46h-.26l-1.8,6.21h9.91l1.79-6.21h-.78C564.15,239.89,563.06,237.43,561.76,237.43Z"/><path class="cls-2" d="M563.09,225.21c1,0,.89,1.41,2,1.41,2,0,2.92-3.72,4.78-3.72a1.32,1.32,0,0,1,1.06.74l2.94-10.16,3.79,13.14h1.61c1,0,1.19-1.89,2.15-1.89.79,0,2.23,1.89,3,1.89h3.1l-8.14-28.2H568.36l-8.14,28.2H561C561.9,226.62,562.41,225.21,563.09,225.21Z"/><path class="cls-3" d="M587.58,226.62h-3.1c-.8,0-2.24-1.89-3-1.89-1,0-1.16,1.89-2.15,1.89h-6.41c-.88,0-1.23-1.9-1.93-3a1.32,1.32,0,0,0-1.06-.74c-1.86,0-2.73,3.72-4.78,3.72-1.14,0-1-1.41-2-1.41-.68,0-1.19,1.41-2.14,1.41h-.73l-1.54,5.32h4.58c1.91,0,3.78-3.74,5.21-3.74s2.42,3.76,4.26,3.76c2.86,0,6.54,0,9.4,0,1.84,0,2.18-2.34,3.63-2.34a7,7,0,0,1,3.09,1.37Z"/><path class="cls-4" d="M582.13,232c-2.86,0-6.54,0-9.4,0-1.84,0-2.69-3.76-4.26-3.76s-3.3,3.74-5.21,3.74h-4.58l-2.29,7.95h.26c1.64,0,3.48-2.46,5.11-2.46,1.3,0,2.39,2.46,3.75,2.46h.78l1.08-3.73h13.06l.66,2.27c1.1.14,1.37,1.46,3.22,1.46,1.63,0,3-4.59,4.63-4.59.7,0,1.24.9,1.69,1.9L588.85,231a7,7,0,0,0-3.09-1.37c-1.45,0-1.79,2.34-3.63,2.34Z"/><path class="cls-5" d="M590.63,237.2c-.45-1-1-1.9-1.69-1.9-1.64,0-3,4.59-4.63,4.59-1.85,0-2.12-1.32-3.22-1.46l2.21,7.67h9.9Z"/><path class="cls-2" d="M505.26,278.64c1,0,1.51,2.41,2.86,2.41h1.24v-1.44l7.11-12.55H511l-4,7.1-4-7.1h-5.47l6.9,12.18C504.66,278.9,504.92,278.64,505.26,278.64Z"/><path class="cls-3" d="M504.6,283.12a1.83,1.83,0,0,0,1.48.83h.9c.89,0,1-.64,1.6-.64a1.47,1.47,0,0,1,.78.36v-2.62h-1.24c-1.35,0-1.82-2.41-2.86-2.41-.34,0-.6.26-.87.6l.21.37v3.51Z"/><path class="cls-4" d="M507,284h-.9a1.83,1.83,0,0,1-1.48-.83v4.37c1.79,0,2.24-2.89,3.55-2.89.48,0,.85.42,1.21.94v-1.87a1.47,1.47,0,0,0-.78-.36C508,283.31,507.87,284,507,284Z"/><path class="cls-5" d="M508.15,284.6c-1.31,0-1.76,2.89-3.55,2.89v3.1h4.76v-5C509,285,508.63,284.6,508.15,284.6Z"/><path class="cls-2" d="M524.4,281.05a9.68,9.68,0,0,1-.29-2.37c0-3.89,2.25-7.17,4.91-7.17s4.92,3.28,4.92,7.17a10.34,10.34,0,0,1-.26,2.25c1.23-.5,1.6-2.29,2.49-2.29s1.38,1.79,2.35,2.29a15.28,15.28,0,0,0,.17-2.25,13.56,13.56,0,0,0-2.62-8.2,8.52,8.52,0,0,0-14.09,0,13.56,13.56,0,0,0-2.62,8.2,16.26,16.26,0,0,0,.11,1.85,2.33,2.33,0,0,0,1.18.52Z"/><path class="cls-3" d="M520.65,281.05a2.33,2.33,0,0,1-1.18-.52c0,.17,0,.35.08.52a14,14,0,0,0,.76,2.82c1.31-.44,1.68-2.32,2.6-2.32s1.51,2.36,2.83,2.4a8,8,0,0,1-1.34-2.9Z"/><path class="cls-3" d="M536.17,278.64c-.89,0-1.26,1.79-2.49,2.29l0,.12a8.6,8.6,0,0,1-.51,1.48.92.92,0,0,1,.38-.08c.93,0,1,1.5,2.46,1.5h.46c.83,0,1-.55,1.5-.63a15.06,15.06,0,0,0,.56-2.27s0-.08,0-.12C537.55,280.43,537.07,278.64,536.17,278.64Z"/><path class="cls-4" d="M525.74,284c-1.32,0-1.79-2.4-2.83-2.4s-1.29,1.88-2.6,2.32a12.75,12.75,0,0,0,1.28,2.46,1.57,1.57,0,0,1,1.14-.73c1.11,0,1.36,1.9,2.79,1.9h1c1,0,1.57-.88,2.11-1.67A4.4,4.4,0,0,1,525.74,284Z"/><path class="cls-4" d="M536.44,284H536c-1.43,0-1.53-1.5-2.46-1.5a.92.92,0,0,0-.38.08,6.29,6.29,0,0,1-2.09,2.65c.69.85,1.24,2.32,2.2,2.32h.37c.89,0,1-.9,1.6-.9.27,0,.48.22.71.44l.14-.17a12.67,12.67,0,0,0,1.87-3.55C537.45,283.4,537.27,284,536.44,284Z"/><path class="cls-5" d="M535.23,286.6c-.57,0-.72.9-1.61.9h-.37c-1,0-1.51-1.47-2.2-2.32a1.27,1.27,0,0,0-.94-.57c-.59,0-1,.58-1.44,1.22-.54.79-1.12,1.67-2.11,1.67h-1c-1.43,0-1.68-1.9-2.79-1.9a1.57,1.57,0,0,0-1.14.73c.13.18.25.36.39.54s.34.43.52.63a8.77,8.77,0,0,0,6.52,3.1,8.92,8.92,0,0,0,6.91-3.56C535.7,286.82,535.49,286.6,535.23,286.6Z"/><path class="cls-2" d="M543,281h1.87c1.62,0,2.05-2,2.88-2.35V266.75H543Z"/><path class="cls-2" d="M555,266.75v14c.66-.43,1-1.24,1.69-1.24.93,0,1,1.51,2.46,1.51h.61V266.75Z"/><path class="cls-3" d="M547.77,278.69c-.83.37-1.26,2.35-2.88,2.35H543v1.81a7.69,7.69,0,0,0,0,.83c1-.63,1.41-2.15,2.23-2.15,1,0,1.46,2.18,2.66,2.39a3.15,3.15,0,0,1-.18-1.07Z"/><path class="cls-3" d="M559.17,281c-1.43,0-1.53-1.51-2.46-1.51-.73,0-1,.81-1.69,1.24v2.08c0,.11,0,.22,0,.32a1.77,1.77,0,0,0,1.43.77h1c.89,0,1-.64,1.6-.64a1.21,1.21,0,0,1,.68.29c0-.25,0-.49,0-.74V281Z"/><path class="cls-4" d="M548,283.92c-1.2-.21-1.67-2.39-2.66-2.39-.82,0-1.21,1.52-2.23,2.15a7.5,7.5,0,0,0,1,3,.6.6,0,0,1,.32-.1c.55,0,.85.89,1.58.89h.46c1.27,0,1.86-1.46,2.58-2.31A2.5,2.5,0,0,1,548,283.92Z"/><path class="cls-4" d="M559.07,283.3c-.57,0-.71.64-1.6.64h-1a1.77,1.77,0,0,1-1.43-.77c-.23,2.6-3.25,2.68-3.61,2.68h-.06c.5.78,1,1.63,1.73,1.63h1.63c1.39,0,1.7-1.89,2.84-1.89.57,0,.91.5,1.31,1a7.67,7.67,0,0,0,.9-3A1.21,1.21,0,0,0,559.07,283.3Z"/><path class="cls-5" d="M557.54,285.59c-1.14,0-1.45,1.89-2.84,1.89h-1.63c-.73,0-1.23-.85-1.73-1.63s-.84-1.26-1.41-1.26a1.3,1.3,0,0,0-1,.58c-.72.85-1.31,2.31-2.58,2.31h-.46c-.73,0-1-.89-1.58-.89a.6.6,0,0,0-.32.1,7.25,7.25,0,0,0,.53.79,7.39,7.39,0,0,0,1.24,1.26,9.39,9.39,0,0,0,11.22,0,7.39,7.39,0,0,0,1.24-1.26,7.94,7.94,0,0,0,.6-.91C558.45,286.09,558.11,285.59,557.54,285.59Z"/><path class="cls-2" d="M567.09,266.15a27.78,27.78,0,0,1-2.25,5.69l-1.35.16a33.2,33.2,0,0,0,1.42-5.64Z"/><path class="cls-2" d="M573,281h.1c1.15,0,1.7-1,2.22-1.7v-7.85h2.49c3.43,0,3.53,3.63,3.53,4a4.6,4.6,0,0,1-.93,2.88,3.2,3.2,0,0,1-2.6,1.12h-.44c.48.69,1,1.51,1.75,1.51h3.35c1.38,0,1.58-1.51,2.58-1.51l.19,0a9.63,9.63,0,0,0,.86-4,9.34,9.34,0,0,0-2-5.92,8,8,0,0,0-6.27-2.87h-7.25v14.1c.32-.19.51-.44.87-.44.54,0,.85.64,1.57.64Z"/><path class="cls-3" d="M585,279.53c-1,0-1.2,1.51-2.58,1.51h-3.35c-.78,0-1.27-.82-1.75-1.51-.34-.48-.67-.9-1.11-.9s-.65.31-.94.71c-.52.71-1.07,1.7-2.22,1.7H573c-.72,0-1-.64-1.57-.64-.36,0-.55.25-.87.44v3.1h1.75c1.78,0,2.12-2.41,3.16-2.41s1.51,2.41,2.86,2.41h1.27c1.38,0,1.59-1.51,2.58-1.51a.84.84,0,0,1,.59.25,7.74,7.74,0,0,0,1.31-1.25q.16-.19.3-.39a8.14,8.14,0,0,0,.86-1.49l-.19,0Z"/><path class="cls-4" d="M579.56,283.94h-1.27c-1.35,0-1.82-2.41-2.86-2.41s-1.38,2.41-3.16,2.41h-1.75v2.12c.51-.73,1-1.47,1.62-1.47,1.25,0,1.79,2.89,3.14,2.89v-3.19h1.66l.89,1.42a1,1,0,0,1,.48-.12c1.12,0,1.36,1.89,2.79,1.89h3.44l-2.65-4.24a7.66,7.66,0,0,0,.84-.56.84.84,0,0,0-.59-.25c-1,0-1.2,1.51-2.58,1.51Z"/><path class="cls-5" d="M572.14,284.59c-.67,0-1.11.74-1.62,1.47v4.53h4.76v-3.11C573.93,287.48,573.39,284.59,572.14,284.59Z"/><path class="cls-5" d="M584.54,287.48H581.1c-1.43,0-1.67-1.89-2.79-1.89a1,1,0,0,0-.48.12l3,4.88h5.6Z"/><path class="cls-4" d="M604.33,285.84c.55.79,1.13,1.68,2.12,1.68h.29v-1.68Z"/><path class="cls-2" d="M593,278.67c1,0,1.38,2.41,3.16,2.41h1.51c.64,0,1-1,1.7-1s.72.82,1.69,1h.8v-4.76H597V271.5h9.74v-4.75h-14.5v12.31A1,1,0,0,1,593,278.67Z"/><path class="cls-3" d="M596.11,281.08c-1.78,0-2.12-2.41-3.16-2.41a1,1,0,0,0-.71.39V284c1.43,0,1.53-1.51,2.46-1.51s1.17,1.29,2.3,1.49v-2.88Z"/><path class="cls-4" d="M597,284c-1.13-.19-1.38-1.49-2.3-1.49s-1,1.51-2.46,1.51v1.78c.78.43,1.19,1.76,2.35,1.76h1c.73,0,1-.89,1.58-.89s.72.89,1.6.89h1c.74,0,1.24-.89,1.75-1.68H597Z"/><path class="cls-5" d="M606.45,287.52c-1,0-1.57-.89-2.12-1.68-.43-.64-.85-1.21-1.43-1.21s-1,.57-1.39,1.21c-.51.79-1,1.68-1.75,1.68h-1c-.88,0-1-.89-1.6-.89s-.85.89-1.58.89h-1c-1.16,0-1.57-1.33-2.35-1.76v4.83h14.5v-3.07Z"/><path class="cls-2" d="M446.05,322.72c.74,0,1,1,1.74,1.35v-9.39h5.86v-4.76h-16.5v4.76H443v9.54h.43C444.85,324.22,445.06,322.72,446.05,322.72Z"/><path class="cls-3" d="M444.69,327.13h.25c.88,0,1-.64,1.6-.64s.74.45,1.25.59v-3c-.78-.39-1-1.35-1.74-1.35-1,0-1.2,1.5-2.58,1.5H443v1.54C443.49,326.41,444,327.13,444.69,327.13Z"/><path class="cls-4" d="M446.54,326.49c-.57,0-.72.64-1.6.64h-.25c-.73,0-1.2-.72-1.65-1.37V329c.45-.65.86-1.25,1.46-1.25,1.25,0,1.8,2.89,3.14,2.89h.15v-3.59C447.28,326.94,447,326.49,446.54,326.49Z"/><path class="cls-5" d="M444.5,327.78c-.6,0-1,.6-1.46,1.25v4.74h4.75v-3.1h-.15C446.3,330.67,445.75,327.78,444.5,327.78Z"/><path class="cls-2" d="M471.36,309.92v9.55h-7.18v-9.55h-4.75V323.8a1,1,0,0,1,.51-.18c.57,0,.72.64,1.61.64h3.23c1.13,0,1.26-1.51,2.11-1.51s1.14,1.51,2.24,1.51h2.23c1.12,0,1.55-2.41,2.52-2.41s1.21,1.52,2.23,2.15V309.92Z"/><path class="cls-3" d="M459.94,323.62a1,1,0,0,0-.51.18v3.36h1.42c1.35,0,1.82-2.41,2.86-2.41a.77.77,0,0,1,.47.18v-.67h-2.64C460.66,324.26,460.51,323.62,459.94,323.62Z"/><path class="cls-3" d="M473.88,321.85c-1,0-1.4,2.41-2.52,2.41h0v2.3c.39-.42.65-.91,1.18-.91,1,0,1.2,1.51,2.58,1.51h1V324C475.09,323.37,474.71,321.85,473.88,321.85Z"/><path class="cls-4" d="M475.18,327.16h-.06c-1.38,0-1.59-1.51-2.58-1.51-.53,0-.79.49-1.18.91v4.14h.2c1.35,0,1.89-2.89,3.14-2.89.58,0,1,.55,1.41,1.17v-1.82Z"/><path class="cls-4" d="M460.85,327.16h-1.42v3.41c.92-.44,1.24-1.76,2.17-1.76s1.41,1.65,2.58,1.87v-5.75a.74.74,0,0,0-.47-.18C462.67,324.75,462.2,327.16,460.85,327.16Z"/><path class="cls-5" d="M474.7,327.81c-1.25,0-1.79,2.89-3.14,2.89h-.2v3.07h4.75V329C475.69,328.36,475.28,327.81,474.7,327.81Z"/><path class="cls-5" d="M461.6,328.81c-.93,0-1.25,1.32-2.17,1.76v3.2h4.75v-3.09C463,330.46,462.66,328.81,461.6,328.81Z"/><path class="cls-4" d="M494,329c.54.79,1.12,1.68,2.12,1.68h.29V329Z"/><path class="cls-2" d="M482.6,321.86c1,0,1.37,2.4,3.16,2.4h1.51c.63,0,1-1,1.69-1s.72.81,1.69,1h.81v-4.75h-4.82v-4.79h9.75v-4.76h-14.5v12.31A1,1,0,0,1,482.6,321.86Z"/><path class="cls-3" d="M485.76,324.26c-1.79,0-2.13-2.4-3.16-2.4a1,1,0,0,0-.71.38v4.93c1.43,0,1.53-1.51,2.46-1.51s1.16,1.29,2.29,1.48v-2.88Z"/><path class="cls-4" d="M486.64,327.14c-1.13-.19-1.37-1.48-2.29-1.48s-1,1.51-2.46,1.51V329c.78.42,1.19,1.76,2.35,1.76h1c.73,0,1-.9,1.58-.9s.71.9,1.6.9h1c.75,0,1.25-.89,1.76-1.68h-4.52Z"/><path class="cls-5" d="M496.1,330.71c-1,0-1.58-.89-2.12-1.68-.44-.64-.85-1.21-1.44-1.21s-1,.57-1.38,1.21c-.51.79-1,1.68-1.76,1.68h-1c-.89,0-1-.9-1.6-.9s-.85.9-1.58.9h-1c-1.16,0-1.57-1.34-2.35-1.76v4.83h14.5v-3.07Z"/><path class="cls-2" d="M513.3,324.24a9.7,9.7,0,0,1-.29-2.38c0-3.88,2.25-7.17,4.91-7.17s4.92,3.29,4.92,7.17a10.27,10.27,0,0,1-.26,2.25c1.23-.49,1.6-2.28,2.49-2.28s1.38,1.79,2.35,2.28a15.08,15.08,0,0,0,.17-2.25,13.51,13.51,0,0,0-2.62-8.19,8.52,8.52,0,0,0-14.09,0,13.51,13.51,0,0,0-2.62,8.19,16.3,16.3,0,0,0,.11,1.86,2.33,2.33,0,0,0,1.18.52Z"/><path class="cls-3" d="M509.55,324.24a2.33,2.33,0,0,1-1.18-.52c0,.17.05.35.08.52a13.69,13.69,0,0,0,.76,2.81c1.31-.43,1.68-2.32,2.6-2.32s1.51,2.37,2.83,2.41a8.08,8.08,0,0,1-1.34-2.9Z"/><path class="cls-3" d="M525.07,321.83c-.89,0-1.26,1.79-2.49,2.28l0,.13a8.6,8.6,0,0,1-.51,1.48.92.92,0,0,1,.38-.08c.93,0,1,1.5,2.46,1.5h.46c.83,0,1-.56,1.49-.63a14.23,14.23,0,0,0,.57-2.27s0-.08,0-.13C526.45,323.62,526,321.83,525.07,321.83Z"/><path class="cls-4" d="M514.64,327.14c-1.32,0-1.8-2.41-2.83-2.41s-1.29,1.89-2.6,2.32a12.2,12.2,0,0,0,1.28,2.46,1.58,1.58,0,0,1,1.14-.72c1.11,0,1.36,1.89,2.79,1.89h1c1,0,1.57-.88,2.11-1.67A4.32,4.32,0,0,1,514.64,327.14Z"/><path class="cls-4" d="M525.34,327.14h-.46c-1.44,0-1.53-1.5-2.46-1.5a.92.92,0,0,0-.38.08,6.29,6.29,0,0,1-2.09,2.65c.69.84,1.24,2.31,2.2,2.31h.37c.89,0,1-.89,1.6-.89.27,0,.48.22.71.44,0-.06.09-.12.14-.17a12.65,12.65,0,0,0,1.86-3.55C526.35,326.58,526.17,327.14,525.34,327.14Z"/><path class="cls-5" d="M524.12,329.79c-.57,0-.71.89-1.6.89h-.37c-1,0-1.51-1.47-2.2-2.31a1.28,1.28,0,0,0-.94-.58c-.59,0-1,.58-1.44,1.22-.54.79-1.12,1.67-2.11,1.67h-1c-1.43,0-1.68-1.89-2.79-1.89a1.58,1.58,0,0,0-1.14.72c.12.19.25.37.39.55s.34.42.52.62a8.75,8.75,0,0,0,6.52,3.11,8.92,8.92,0,0,0,6.91-3.56C524.6,330,524.39,329.79,524.12,329.79Z"/><path class="cls-2" d="M545.43,309.92v14.3h.88c1.79,0,2.13-2.4,3.17-2.4a1,1,0,0,1,.7.38V309.92Z"/><path class="cls-2" d="M531.92,309.92v14.13c.77-.39,1.06-1.33,1.85-1.33s1,1.5,2.46,1.5h.44v-5.15l3.07,5.15h.53c.89,0,1-.63,1.6-.63s.85.63,1.58.63h1.74l-8.52-14.3Z"/><path class="cls-3" d="M549.48,321.82c-1,0-1.38,2.4-3.17,2.4h-.88v.4l-.24-.4h-1.74c-.73,0-1-.63-1.58-.63s-.71.63-1.6.63h-.53l1.73,2.91h1.67c1.39,0,1.59-1.51,2.58-1.51s1,1.51,2.46,1.51h2V322.2A1,1,0,0,0,549.48,321.82Z"/><path class="cls-3" d="M533.77,322.72c-.79,0-1.08.94-1.85,1.33v2.11c.53-.67.89-1.44,1.48-1.44,1,0,1.51,2.41,2.86,2.41h.41v-2.91h-.44C534.8,324.22,534.7,322.72,533.77,322.72Z"/><path class="cls-4" d="M533.4,324.72c-.59,0-.95.77-1.48,1.44v4.51h.55c1.39,0,1.7-1.89,2.84-1.89.6,0,1,.54,1.36,1.05v-2.7h-.41C534.91,327.13,534.44,324.72,533.4,324.72Z"/><path class="cls-4" d="M548.18,327.13c-1.43,0-1.53-1.51-2.46-1.51s-1.19,1.51-2.58,1.51h-1.67l1,1.69c.4-.57.79-1,1.32-1,1.25,0,1.79,2.89,3.14,2.89h1.53c.88,0,1-.9,1.6-.9l.11,0v-2.66Z"/><path class="cls-5" d="M550.07,329.77c-.57,0-.72.9-1.6.9h-1.53c-1.35,0-1.89-2.89-3.14-2.89-.53,0-.92.47-1.32,1l1.1,1.85,1.85,3.1h4.75v-4l-.11,0Z"/><path class="cls-5" d="M535.31,328.78c-1.14,0-1.45,1.89-2.84,1.89h-.55v3.1h4.75v-3.94C536.26,329.32,535.91,328.78,535.31,328.78Z"/><path class="cls-4" d="M568,329c.55.79,1.13,1.68,2.12,1.68h.29V329Z"/><path class="cls-2" d="M556.65,321.86c1,0,1.38,2.4,3.17,2.4h1.5c.64,0,1-1,1.7-1s.72.81,1.69,1h.8v-4.75H560.7v-4.79h9.74v-4.76H556v12.31A1,1,0,0,1,556.65,321.86Z"/><path class="cls-3" d="M559.82,324.26c-1.79,0-2.13-2.4-3.17-2.4a1,1,0,0,0-.7.38v4.93c1.43,0,1.53-1.51,2.46-1.51s1.16,1.29,2.29,1.48v-2.88Z"/><path class="cls-4" d="M560.7,327.14c-1.13-.19-1.37-1.48-2.29-1.48s-1,1.51-2.46,1.51V329c.77.42,1.18,1.76,2.34,1.76h1c.73,0,1-.9,1.58-.9s.72.9,1.6.9h1c.75,0,1.25-.89,1.76-1.68H560.7Z"/><path class="cls-5" d="M570.15,330.71c-1,0-1.57-.89-2.12-1.68-.43-.64-.85-1.21-1.43-1.21s-1,.57-1.38,1.21c-.51.79-1,1.68-1.76,1.68h-1c-.88,0-1-.9-1.6-.9s-.85.9-1.58.9h-1c-1.16,0-1.57-1.34-2.34-1.76v4.83h14.49v-3.07Z"/><path class="cls-2" d="M584.93,321.82c1,0,1.38,2.41,3.16,2.41h.5c.73,0,1-.63,1.58-.63s.71.63,1.6.63h.73v-4.75h-4.82v-4.79h9.75v-4.76h-14.5v13.94C583.68,323.19,584.15,321.82,584.93,321.82Z"/><path class="cls-3" d="M584.93,321.82c-.78,0-1.25,1.37-2,2.05v3.26h.12c1.43,0,1.53-1.5,2.46-1.5s1.15,1.2,2.17,1.46v-2.86h.41C586.31,324.23,586,321.82,584.93,321.82Z"/><path class="cls-4" d="M585.51,325.63c-.93,0-1,1.5-2.46,1.5h-.12v2.65c.56,0,.71.9,1.59.9h.75c1.05,0,1.62-1.79,2.41-2.55v-1C586.66,326.83,586.4,325.63,585.51,325.63Z"/><path class="cls-5" d="M585.27,330.68h-.75c-.88,0-1-.88-1.59-.9v4h4.75v-5.65C586.89,328.89,586.32,330.68,585.27,330.68Z"/><path class="cls-2" d="M606.81,324.24a10.21,10.21,0,0,1-.29-2.38c0-3.88,2.25-7.17,4.92-7.17s4.91,3.29,4.91,7.17a9.7,9.7,0,0,1-.26,2.25c1.23-.49,1.6-2.28,2.49-2.28s1.38,1.79,2.35,2.28a15.08,15.08,0,0,0,.17-2.25,13.51,13.51,0,0,0-2.62-8.19,8.52,8.52,0,0,0-14.09,0,13.51,13.51,0,0,0-2.62,8.19,16.3,16.3,0,0,0,.11,1.86,2.33,2.33,0,0,0,1.18.52Z"/><path class="cls-3" d="M603.06,324.24a2.33,2.33,0,0,1-1.18-.52c0,.17,0,.35.08.52a13.69,13.69,0,0,0,.76,2.81c1.32-.43,1.69-2.32,2.6-2.32s1.51,2.37,2.83,2.41a8.25,8.25,0,0,1-1.34-2.9Z"/><path class="cls-3" d="M618.58,321.83c-.89,0-1.26,1.79-2.49,2.28l0,.13a8.6,8.6,0,0,1-.51,1.48,1,1,0,0,1,.38-.08c.93,0,1,1.5,2.46,1.5h.46c.83,0,1-.56,1.5-.63a14.21,14.21,0,0,0,.56-2.27.51.51,0,0,0,0-.13C620,323.62,619.48,321.83,618.58,321.83Z"/><path class="cls-4" d="M608.15,327.14c-1.32,0-1.79-2.41-2.83-2.41s-1.28,1.89-2.6,2.32a12.2,12.2,0,0,0,1.28,2.46,1.58,1.58,0,0,1,1.14-.72c1.11,0,1.36,1.89,2.79,1.89h1c1,0,1.57-.88,2.11-1.67A4.35,4.35,0,0,1,608.15,327.14Z"/><path class="cls-4" d="M618.85,327.14h-.46c-1.43,0-1.53-1.5-2.46-1.5a1,1,0,0,0-.38.08,6.29,6.29,0,0,1-2.09,2.65c.69.84,1.25,2.31,2.2,2.31H616c.88,0,1-.89,1.6-.89.27,0,.48.22.71.44l.13-.17a12.42,12.42,0,0,0,1.87-3.55C619.86,326.58,619.68,327.14,618.85,327.14Z"/><path class="cls-5" d="M617.64,329.79c-.57,0-.72.89-1.6.89h-.38c-.95,0-1.51-1.47-2.2-2.31a1.28,1.28,0,0,0-.93-.58c-.59,0-1,.58-1.45,1.22-.54.79-1.12,1.67-2.11,1.67h-1c-1.43,0-1.68-1.89-2.79-1.89a1.58,1.58,0,0,0-1.14.72l.39.55c.17.21.34.42.52.62a8.77,8.77,0,0,0,6.53,3.11,8.93,8.93,0,0,0,6.91-3.56C618.12,330,617.91,329.79,617.64,329.79Z"/><path class="cls-2" d="M627.87,324.22h.1c1.15,0,1.7-1,2.22-1.7v-7.84h2.49c3.43,0,3.53,3.62,3.53,4a4.59,4.59,0,0,1-.93,2.87,3.18,3.18,0,0,1-2.6,1.13h-.44c.48.68,1,1.5,1.75,1.5h3.35c1.38,0,1.58-1.5,2.58-1.5l.19,0a9.63,9.63,0,0,0,.86-4,9.34,9.34,0,0,0-2-5.92,8,8,0,0,0-6.27-2.88h-7.25V324c.32-.19.51-.44.87-.44.54,0,.85.63,1.57.63Z"/><path class="cls-3" d="M639.92,322.72c-1,0-1.2,1.5-2.58,1.5H634c-.78,0-1.27-.82-1.75-1.5-.34-.49-.67-.91-1.11-.91s-.65.32-.94.71c-.52.71-1.07,1.7-2.22,1.7h-.1c-.72,0-1-.63-1.57-.63-.36,0-.55.25-.87.44v3.09h1.75c1.78,0,2.12-2.4,3.16-2.4s1.51,2.4,2.86,2.4h1.27c1.38,0,1.59-1.5,2.58-1.5a.84.84,0,0,1,.59.25,7.42,7.42,0,0,0,1.31-1.26,2.88,2.88,0,0,0,.3-.39,8.05,8.05,0,0,0,.86-1.48l-.19,0Z"/><path class="cls-4" d="M634.47,327.12H633.2c-1.35,0-1.82-2.4-2.86-2.4s-1.38,2.4-3.16,2.4h-1.75v2.12c.51-.73,1-1.46,1.62-1.46,1.25,0,1.79,2.89,3.14,2.89v-3.2h1.66l.89,1.43a1,1,0,0,1,.48-.13c1.12,0,1.36,1.9,2.79,1.9h3.44l-2.65-4.25a7.57,7.57,0,0,0,.84-.55.84.84,0,0,0-.59-.25c-1,0-1.2,1.5-2.58,1.5Z"/><path class="cls-5" d="M627.05,327.78c-.67,0-1.11.73-1.62,1.46v4.53h4.76v-3.1C628.84,330.67,628.3,327.78,627.05,327.78Z"/><path class="cls-5" d="M639.45,330.67H636c-1.43,0-1.67-1.9-2.79-1.9a1,1,0,0,0-.48.13l3,4.87h5.6Z"/><path class="cls-2" d="M577.06,377.67a2.35,2.35,0,0,1,1.7,1.1V366.84l13,12,13-12v15.64h2.55c1.77,0,2.06-1.27,3.2-1.27s1.7,1.27,3.15,1.27h.6v-28.6h-9.5l-13,11.89-13-11.89h-9.51v28.6h1.48c3.58,0,4.26-4.81,6.33-4.81Z"/><path class="cls-3" d="M613.57,382.48c-1.45,0-2.06-1.27-3.15-1.27s-1.43,1.27-3.2,1.27h-2.55v4.36c1.29-1.42,2.05-3.37,3.36-3.37,2.09,0,3,4.82,5.72,4.82h.42v-5.81Z"/><path class="cls-3" d="M577.06,377.67c-2.07,0-2.75,4.81-6.33,4.81h-1.48V388c1.63-.75,2.2-2.72,3.81-2.72,1.86,0,2.06,3,4.92,3h.78v-9.52A2.35,2.35,0,0,0,577.06,377.67Z"/><path class="cls-4" d="M613.83,388.29h-.08c-2.69,0-3.63-4.82-5.72-4.82-1.31,0-2.07,1.95-3.36,3.37v5.09c1.4.94,2.16,3.44,4.49,3.44H611c1.77,0,2.07-1.79,3.2-1.79v-5.29Z"/><path class="cls-4" d="M573.06,385.28c-1.61,0-2.18,2-3.81,2.72v7.07c2.51-1.2,3.49-5.48,5.75-5.48,1.56,0,2.57,2.24,3.76,3.94v-5.24H578C575.12,388.29,574.92,385.28,573.06,385.28Z"/><path class="cls-5" d="M611,395.37h-1.81c-2.33,0-3.09-2.5-4.49-3.44v9.65h9.5v-8C613,393.58,612.74,395.37,611,395.37Z"/><path class="cls-5" d="M575,389.59c-2.26,0-3.24,4.28-5.75,5.48v6.51h9.51v-8.05C577.57,391.83,576.56,389.59,575,389.59Z"/><path class="cls-4" d="M649.88,385.49c1.09,1.59,2.24,3.37,4.23,3.37h.59v-3.37Z"/><path class="cls-2" d="M627.12,371.15c2.06,0,2.74,4.82,6.32,4.82h3c1.27,0,2-2,3.39-2,1.59,0,1.44,1.63,3.38,2h1.61V366.4h-9.62v-9.59H654.7V347.3h-29v24.63A2,2,0,0,1,627.12,371.15Z"/><path class="cls-3" d="M633.44,376c-3.58,0-4.26-4.82-6.32-4.82a2,2,0,0,0-1.42.78v9.84c2.86,0,3.06-3,4.92-3s2.32,2.58,4.59,3V376Z"/><path class="cls-4" d="M635.21,381.73c-2.27-.39-2.75-3-4.59-3s-2.06,3-4.92,3v3.56c1.55.86,2.37,3.53,4.7,3.53h2c1.45,0,2.06-1.79,3.15-1.79s1.43,1.79,3.2,1.79h2c1.49,0,2.49-1.78,3.51-3.37h-9Z"/><path class="cls-5" d="M654.11,388.86c-2,0-3.14-1.78-4.23-3.37-.88-1.27-1.7-2.41-2.88-2.41s-1.94,1.14-2.76,2.41c-1,1.59-2,3.37-3.51,3.37h-2c-1.77,0-2.06-1.79-3.2-1.79s-1.7,1.79-3.15,1.79h-2c-2.33,0-3.15-2.67-4.7-3.53V395h29v-6.14Z"/><path class="cls-2" d="M416.41,101.8a10.12,10.12,0,0,1-.28-2.37c0-3.89,2.25-7.17,4.91-7.17S426,95.54,426,99.43a9.7,9.7,0,0,1-.26,2.25c1.23-.5,1.61-2.29,2.5-2.29s1.37,1.79,2.34,2.29a14,14,0,0,0,.17-2.25,13.56,13.56,0,0,0-2.62-8.2,8.52,8.52,0,0,0-14.09,0,13.56,13.56,0,0,0-2.62,8.2,14.25,14.25,0,0,0,.12,1.85c.34.18.64.52,1.17.52Z"/><path class="cls-3" d="M412.66,101.8c-.53,0-.83-.34-1.17-.52,0,.17,0,.35.07.52a14.65,14.65,0,0,0,.76,2.82c1.32-.44,1.69-2.32,2.6-2.32s1.51,2.36,2.83,2.4a8.17,8.17,0,0,1-1.34-2.9Z"/><path class="cls-3" d="M428.19,99.39c-.89,0-1.27,1.79-2.5,2.29l0,.12a8.6,8.6,0,0,1-.51,1.48,1,1,0,0,1,.38-.08c.93,0,1,1.5,2.46,1.5h.46c.83,0,1-.55,1.5-.62a13.32,13.32,0,0,0,.56-2.28.5.5,0,0,0,0-.12c-1-.5-1.44-2.29-2.34-2.29Z"/><path class="cls-4" d="M417.75,104.7c-1.32,0-1.79-2.4-2.83-2.4s-1.28,1.88-2.6,2.32a12.75,12.75,0,0,0,1.28,2.46,1.58,1.58,0,0,1,1.14-.73c1.12,0,1.36,1.9,2.79,1.9h1.05c1,0,1.56-.88,2.1-1.67a4.42,4.42,0,0,1-2.93-1.88Z"/><path class="cls-4" d="M428.45,104.7H428c-1.43,0-1.53-1.5-2.46-1.5a1,1,0,0,0-.38.08,6.21,6.21,0,0,1-2.09,2.65c.7.85,1.25,2.32,2.21,2.32h.37c.88,0,1-.9,1.6-.9.27,0,.48.22.71.44l.13-.17a12.49,12.49,0,0,0,1.87-3.54C429.46,104.15,429.28,104.7,428.45,104.7Z"/><path class="cls-5" d="M427.24,107.35c-.57,0-.72.9-1.6.9h-.37c-1,0-1.51-1.47-2.21-2.32a1.24,1.24,0,0,0-.93-.57c-.59,0-1,.58-1.45,1.22-.54.79-1.12,1.67-2.1,1.67h-1.05c-1.43,0-1.67-1.9-2.79-1.9a1.58,1.58,0,0,0-1.14.73l.39.54c.17.22.34.43.52.63a8.46,8.46,0,0,0,13.44-.46c-.23-.22-.44-.44-.71-.44Z"/><path class="cls-2" d="M435,101.79h1.86c1.62,0,2.05-2,2.89-2.35V87.5H435Z"/><path class="cls-2" d="M447,87.5v14c.65-.43,1-1.24,1.68-1.24.93,0,1,1.51,2.46,1.51h.61V87.5Z"/><path class="cls-3" d="M439.79,99.44c-.84.37-1.27,2.35-2.89,2.35H435v1.81a7.69,7.69,0,0,0,0,.83c1-.63,1.4-2.15,2.22-2.15,1,0,1.47,2.17,2.67,2.39a3.15,3.15,0,0,1-.18-1.07Z"/><path class="cls-3" d="M451.18,101.79c-1.43,0-1.53-1.51-2.46-1.51-.72,0-1,.81-1.68,1.24v2.08c0,.11,0,.22,0,.32a1.75,1.75,0,0,0,1.43.77h1c.88,0,1-.64,1.6-.64a1.19,1.19,0,0,1,.67.29c0-.25,0-.49,0-.74v-1.81Z"/><path class="cls-4" d="M440,104.67c-1.2-.22-1.68-2.39-2.67-2.39-.82,0-1.2,1.52-2.22,2.15a7.35,7.35,0,0,0,1,3,.55.55,0,0,1,.32-.1c.54,0,.85.89,1.57.89h.46c1.28,0,1.87-1.46,2.58-2.31A2.53,2.53,0,0,1,440,104.67Z"/><path class="cls-4" d="M451.09,104.05c-.57,0-.72.64-1.6.64h-1a1.75,1.75,0,0,1-1.43-.77c-.24,2.6-3.26,2.68-3.61,2.68h-.06c.5.78,1,1.63,1.73,1.63h1.63c1.38,0,1.7-1.89,2.84-1.89.57,0,.91.5,1.3,1a7.35,7.35,0,0,0,.9-3,1.19,1.19,0,0,0-.67-.29Z"/><path class="cls-5" d="M449.56,106.34c-1.14,0-1.46,1.89-2.84,1.89h-1.63c-.74,0-1.23-.85-1.73-1.63s-.84-1.26-1.41-1.26a1.34,1.34,0,0,0-1,.58c-.71.85-1.3,2.31-2.58,2.31h-.46c-.72,0-1-.89-1.57-.89a.55.55,0,0,0-.32.1,5.19,5.19,0,0,0,.53.79,7.38,7.38,0,0,0,1.24,1.26,9.38,9.38,0,0,0,11.21,0,7.38,7.38,0,0,0,1.24-1.26,6,6,0,0,0,.6-.91C450.47,106.84,450.13,106.34,449.56,106.34Z"/><path class="cls-2" d="M466.47,100.28c.74,0,.95,1,1.74,1.35V92.24h5.86V87.49h-16.5v4.75h5.88v9.55h.44c1.38,0,1.58-1.51,2.58-1.51Z"/><path class="cls-3" d="M465.11,104.69h.24c.89,0,1-.64,1.6-.64s.75.45,1.26.59v-3c-.79-.39-1-1.35-1.74-1.35-1,0-1.2,1.51-2.58,1.51h-.44v1.53C463.9,104,464.38,104.69,465.11,104.69Z"/><path class="cls-4" d="M467,104.05c-.57,0-.71.64-1.6.64h-.24c-.73,0-1.21-.72-1.66-1.37v3.27c.45-.65.87-1.25,1.47-1.25,1.25,0,1.8,2.89,3.14,2.89h.15v-3.59C467.7,104.5,467.41,104.05,467,104.05Z"/><path class="cls-5" d="M464.92,105.34c-.6,0-1,.6-1.47,1.25v4.75h4.76v-3.11h-.15C466.72,108.23,466.17,105.34,464.92,105.34Z"/><path class="cls-2" d="M489.31,101.8a9.62,9.62,0,0,1-.29-2.37c0-3.89,2.25-7.17,4.91-7.17s4.91,3.28,4.91,7.17a9.7,9.7,0,0,1-.26,2.25c1.23-.5,1.61-2.29,2.5-2.29s1.37,1.79,2.35,2.29a15.28,15.28,0,0,0,.17-2.25,13.5,13.5,0,0,0-2.63-8.2,8.51,8.51,0,0,0-14.08,0,13.57,13.57,0,0,0-2.63,8.2,14.25,14.25,0,0,0,.12,1.85,2.3,2.3,0,0,0,1.18.52Z"/><path class="cls-3" d="M485.56,101.8a2.3,2.3,0,0,1-1.18-.52c0,.17.05.35.07.52a14,14,0,0,0,.77,2.82c1.31-.44,1.68-2.32,2.6-2.32s1.5,2.36,2.82,2.4a8.16,8.16,0,0,1-1.33-2.9Z"/><path class="cls-3" d="M501.08,99.39c-.89,0-1.27,1.79-2.5,2.29l0,.12a9.53,9.53,0,0,1-.5,1.48.87.87,0,0,1,.37-.08c.93,0,1,1.5,2.46,1.5h.47c.83,0,1-.55,1.49-.62a14.35,14.35,0,0,0,.57-2.28.5.5,0,0,1,0-.12c-1-.5-1.45-2.29-2.35-2.29Z"/><path class="cls-4" d="M490.64,104.7c-1.32,0-1.79-2.4-2.82-2.4s-1.29,1.88-2.6,2.32a12.75,12.75,0,0,0,1.28,2.46,1.57,1.57,0,0,1,1.14-.73c1.11,0,1.36,1.9,2.79,1.9h1c1,0,1.56-.88,2.11-1.67a4.42,4.42,0,0,1-2.94-1.88Z"/><path class="cls-4" d="M501.35,104.7h-.47c-1.43,0-1.53-1.5-2.46-1.5a.87.87,0,0,0-.37.08,6.29,6.29,0,0,1-2.09,2.65c.69.85,1.24,2.32,2.2,2.32h.37c.89,0,1-.9,1.6-.9.27,0,.48.22.71.44l.13-.17a12.49,12.49,0,0,0,1.87-3.54C502.36,104.15,502.18,104.7,501.35,104.7Z"/><path class="cls-5" d="M500.13,107.35c-.57,0-.71.9-1.6.9h-.37c-1,0-1.51-1.47-2.2-2.32a1.27,1.27,0,0,0-.94-.57c-.59,0-1,.58-1.44,1.22-.55.79-1.12,1.67-2.11,1.67h-1c-1.43,0-1.68-1.9-2.79-1.9a1.57,1.57,0,0,0-1.14.73q.18.27.39.54a7.91,7.91,0,0,0,.52.63,8.77,8.77,0,0,0,6.52,3.1,8.89,8.89,0,0,0,6.91-3.56c-.23-.22-.44-.44-.71-.44Z"/><path class="cls-2" d="M509.93,99.39c1,0,1.38,2.41,3.16,2.41h.5c.73,0,1-.64,1.58-.64s.71.64,1.6.64h.73V97h-4.82V92.25h9.75V87.49h-14.5v13.94c.75-.68,1.22-2,2-2Z"/><path class="cls-3" d="M509.93,99.39c-.78,0-1.25,1.36-2,2v3.27h.12c1.43,0,1.53-1.51,2.46-1.51s1.15,1.2,2.17,1.46V101.8h.41C511.31,101.8,511,99.39,509.93,99.39Z"/><path class="cls-4" d="M510.51,103.19c-.93,0-1,1.51-2.46,1.51h-.12v2.65c.56,0,.71.89,1.59.89h.75c1.05,0,1.61-1.78,2.41-2.55v-1C511.66,104.39,511.4,103.19,510.51,103.19Z"/><path class="cls-5" d="M510.27,108.24h-.75c-.88,0-1-.88-1.59-.89v4h4.75v-5.65C511.88,106.46,511.32,108.24,510.27,108.24Z"/><path class="cls-5" d="M533.17,107c-.82,0-1.74,1.23-2.55,1.23h-.14l-.89,3.1h4.95l.89-3.1H535C534.36,108.24,533.82,107,533.17,107Z"/><path class="cls-2" d="M533.83,100.9c.5,0,.45.7,1,.7,1,0,1.46-1.85,2.39-1.85a.66.66,0,0,1,.53.36L539.24,95l1.9,6.57h.8c.49,0,.59-.94,1.07-.94s1.12.94,1.52.94h1.55L542,87.51h-5.54L532.4,101.6h.36C533.24,101.6,533.49,100.9,533.83,100.9Z"/><path class="cls-3" d="M546.08,101.6h-1.55c-.4,0-1.12-.94-1.52-.94s-.58.94-1.07.94h-3.21c-.44,0-.61-.94-1-1.49a.66.66,0,0,0-.53-.36c-.93,0-1.37,1.85-2.39,1.85-.57,0-.52-.7-1-.7-.34,0-.59.7-1.07.7h-.36l-.77,2.66h2.29c1,0,1.89-1.87,2.6-1.87s1.21,1.88,2.13,1.88l4.7,0c.92,0,1.09-1.17,1.82-1.17a3.63,3.63,0,0,1,1.55.68Z"/><path class="cls-4" d="M543.35,104.3l-4.7,0c-.92,0-1.34-1.88-2.13-1.88s-1.65,1.87-2.6,1.87h-2.29l-1.15,4h.14c.81,0,1.73-1.23,2.55-1.23.65,0,1.19,1.23,1.87,1.23h.39l.54-1.87h6.53l.33,1.14c.55.07.69.73,1.61.73s1.5-2.3,2.32-2.3c.35,0,.62.45.84,1l-.88-3.08a3.63,3.63,0,0,0-1.55-.68c-.73,0-.9,1.17-1.82,1.17Z"/><path class="cls-5" d="M547.6,106.89c-.22-.5-.49-1-.84-1-.82,0-1.5,2.3-2.32,2.3s-1.06-.66-1.61-.73l1.11,3.83h4.95Z"/><path class="cls-2" d="M555.81,100.29c.86,0,1,1.29,2.17,1.48V87.49h-4.76v14.3C554.61,101.79,554.81,100.29,555.81,100.29Z"/><path class="cls-3" d="M554.77,104.69h.39c.88,0,1-.63,1.6-.63s.73.42,1.22.58v-2.87c-1.16-.19-1.31-1.48-2.17-1.48s-1.2,1.5-2.59,1.5v1.69C553.64,104.08,554.1,104.69,554.77,104.69Z"/><path class="cls-4" d="M563.39,106.59c.5.78,1,1.65,1.73,1.65h.32c.89,0,1-.9,1.61-.9a1.06,1.06,0,0,1,.67.41v-1.16Z"/><path class="cls-4" d="M558,104.69v0c-.49-.16-.77-.58-1.22-.58s-.72.63-1.6.63h-.39c-.67,0-1.13-.61-1.55-1.21V108c.76-.52,1.15-1.63,2-1.63,1.11,0,1.36,1.9,2.79,1.9h.4c1,0,1.56-.87,2.1-1.65H558v-1.9Z"/><path class="cls-5" d="M567.05,107.34c-.57,0-.72.9-1.61.9h-.32c-.73,0-1.23-.87-1.73-1.65s-.84-1.25-1.41-1.25-1,.6-1.45,1.25-1.12,1.65-2.1,1.65H558c-1.43,0-1.68-1.9-2.79-1.9-.87,0-1.26,1.11-2,1.63v3.37h14.5v-3.59A1.06,1.06,0,0,0,567.05,107.34Z"/><path class="cls-2" d="M576.06,100.29c.87,0,1,1.29,2.17,1.48V87.49h-4.75v14.3C574.87,101.79,575.07,100.29,576.06,100.29Z"/><path class="cls-3" d="M575,104.69h.38c.89,0,1-.63,1.61-.63s.73.42,1.21.58v-2.87c-1.16-.19-1.3-1.48-2.17-1.48s-1.19,1.5-2.58,1.5v1.69C573.9,104.08,574.35,104.69,575,104.69Z"/><path class="cls-4" d="M583.64,106.59c.51.78,1,1.65,1.74,1.65h.32c.89,0,1-.9,1.6-.9.26,0,.46.2.68.41v-1.16Z"/><path class="cls-4" d="M578.23,104.69v0c-.48-.16-.77-.58-1.21-.58s-.72.63-1.61.63H575c-.68,0-1.13-.61-1.55-1.21V108c.75-.52,1.14-1.63,2-1.63,1.12,0,1.36,1.9,2.79,1.9h.41c1,0,1.55-.87,2.09-1.65h-2.55v-1.9Z"/><path class="cls-5" d="M587.3,107.34c-.57,0-.71.9-1.6.9h-.32c-.74,0-1.23-.87-1.74-1.65s-.83-1.25-1.4-1.25-1,.6-1.46,1.25-1.11,1.65-2.09,1.65h-.41c-1.43,0-1.67-1.9-2.79-1.9-.87,0-1.26,1.11-2,1.63v3.37H588v-3.59C587.76,107.54,587.56,107.34,587.3,107.34Z"/></g></svg>