<?xml version="1.0" encoding="utf-8"?>
<!-- Generator: Adobe Illustrator 25.3.1, SVG Export Plug-In . SVG Version: 6.00 Build 0)  -->
<svg version="1.1" xmlns="http://www.w3.org/2000/svg" xmlns:xlink="http://www.w3.org/1999/xlink" x="0px" y="0px"
	 viewBox="0 0 792 612" style="enable-background:new 0 0 792 612;" xml:space="preserve">
<style type="text/css">
	.st0{fill:#B2C6A4;}
	.st1{fill:none;stroke:#E6EDE2;stroke-width:1.302;stroke-linecap:round;stroke-linejoin:round;stroke-miterlimit:10;}
	.st2{stroke:#000000;stroke-width:0.8222;stroke-linecap:round;stroke-linejoin:round;stroke-miterlimit:10;}
	.st3{fill:#FFFFFF;}
	.st4{fill:none;stroke:#FFFFFF;stroke-width:0.8222;stroke-linecap:round;stroke-linejoin:round;stroke-miterlimit:10;}
	.st5{fill:none;stroke:#000000;stroke-width:0.8222;stroke-linecap:round;stroke-linejoin:round;stroke-miterlimit:10;}
	.st6{fill:#AFC276;}
	.st7{fill:none;stroke:#E8ECD7;stroke-width:1.302;stroke-linecap:round;stroke-linejoin:round;stroke-miterlimit:10;}
	.st8{fill:#2A3031;}
	.st9{fill:none;stroke:#2A3031;stroke-width:1.302;stroke-linecap:round;stroke-linejoin:round;stroke-miterlimit:10;}
</style>
<g id="Layer_1">
</g>
<g id="Layer_4">
	<g>
		<g>
			<g>
				<g>
					<path class="st6" d="M586.5,371.3c0,0,0,0,0.1-0.2c0.3-0.7,0.7-1.9,1.3-3.4c0.6-1.5,1.4-3.4,2.8-5.1c0-0.1,0.3-0.3,0.3-0.3
						c0,0,0.3,0.2,0.8,0.4c0.4,0.3,1.1,0.7,1.8,1.3c0.3,0.3,0.7,0.6,1,1c0.3,0.4,0.7,0.7,0.9,1.1c0.6,0.8,1.1,1.6,1.4,2.3
						c0.8,1.4,1.3,2.3,1.6,2.8c0.2,0.3,0.3,0.4,0.4,0.5c0.1,0.1,0.1,0.1,0.1,0.1c0,0,0,0.1,0,0.2c0,0.1-0.1,0.4-0.1,0.6
						c0,0.3,0,0.6,0,1c0,0.4,0.1,0.8,0.1,1.3c0.3,1.3,0.4,2.5,0,3.3c-0.4,0.9-1.3,1.5-2.3,1.7c0,0.1-1.1,0.2-2.4-0.2
						c-0.6-0.2-1.3-0.4-1.7-0.6c-0.5-0.2-0.8-0.4-0.8-0.4s-0.2-0.2-0.5-0.5c-0.1-0.2-0.3-0.4-0.5-0.6c-0.2-0.2-0.4-0.5-0.6-0.8
						c-0.8-1.2-1.6-2.7-2.1-3.6c-0.6-1-0.9-1.4-1.1-1.6c-0.1-0.1-0.2-0.2-0.3-0.2C586.5,371.3,586.5,371.3,586.5,371.3z"/>
				</g>
			</g>
		</g>
		<g>
			<g>
				<g>
					<path class="st6" d="M337.4,276.9c-0.3,0.6-0.4,0.9-1.3,1.5c-1.5,1-3.3,2-5.3,2.5c-2,0.5-4.1,0.6-6,0c-1.9-0.6-3.7-1.9-5.2-3.9
						c-1.5-2-2.7-4.8-3.9-8.4c-0.1-0.3-0.3-1.4-0.2-1.8c2.3-4.8,3.4-9.7,3.3-13.7c-0.2-4.1-1.6-7.1-4.2-9.5
						c-2.6-2.4-6.6-4.2-11.3-4.7c-2.4-0.3-4.9-0.3-7.4-0.1c-1.3,0.1-2.6,0.3-3.9,0.5c-1.1,0.2-2.2,0.5-3.3,0.8
						c-4.3,1.4-8.5,4-12.3,7.6c-3.8,3.6-7.2,8.1-10.2,13c-6,10-10.1,21.6-13.1,33.7c-1.4,6.1-2.6,12.2-3.4,18.3
						c-0.7,6-1.1,12.1-0.7,17.7c0.3,5.6,1.4,11,3.3,15.1c0.9,2,2.1,3.7,3.3,5c1.2,1.3,2.6,2.2,4.2,2.9c1.6,0.7,3.5,1.1,5.7,1.2
						l0.8,0l0.4,0l0.2,0l0.1,0c0.3,0,0.5,0,0.8-0.1c0.5-0.1,1.1-0.2,1.8-0.5c1.3-0.6,3-1.8,4.7-3.4c1.7-1.6,3.4-3.7,5-6
						c1.6-2.3,3.2-4.8,4.7-7.4l1-1.8l1.2-2.2c0.8-1.5,1.5-3,2.3-4.5c1.5-3,2.9-6.2,4.4-9.3l4.3-9.6c1.4-3.1,2.9-6.3,4.3-8.9
						c2.9-5.4,5.6-7.9,7.7-9.4c0.3-0.2,0.5-0.3,0.8-0.5c0.2-0.2,0.5-0.3,0.6-0.4c0.3-0.2,0.6-0.3,0.8-0.4c0.5-0.3,1.1-0.4,1.6-0.6
						c1-0.4,1.9-0.5,2.9-0.6c0.5,0,1-0.1,1.7,0c0.3,0,0.7,0,1.1,0.1c0.4,0.1,1,0.1,1.6,0.3l0.4,0.1c0,0.1,0.1-0.1,0.1-0.1l0.1,0
						l0.1,0l0.2,0.1c0.3,0.1,0.5,0.2,0.8,0.3c0.3,0.1,0.5,0.2,0.7,0.3c0.2,0.1,0.4,0.2,0.6,0.3l1.9,1.2c0,0,0.1,0.1,0.2,0.2
						c0.1,0.1,0.3,0.3,0.5,0.6c0.4,0.5,1,1.2,1.6,2.3c0.6,1.1,1.2,2.5,1.8,4.7c0.3,1.1,0.6,2.4,0.8,4c0.2,1.6,0.3,3.6,0.3,5.9
						c0,0.6,0,1.2,0,1.9c0,0.6-0.1,1.4-0.1,2c-0.1,1.3-0.3,2.9-0.4,4.5c-0.4,3.2-0.9,6.5-1.5,9.9c-1.1,6.8-2.2,13.4-2.6,19.4
						l-0.1,1.1c0,0.3,0,0.3,0,0.4l0,0.3l-0.1,1.2c-0.1,0.8-0.1,1.6-0.2,2.4c-0.1,1.6-0.1,3.1-0.1,4.6c0.1,2.9,0.5,5.6,1.2,7.9
						c0.7,1.9,1.6,3.4,2.7,4.7c1.1,1.3,2.4,2.2,3.7,3c2.6,1.6,5.2,2.4,7.1,3.1c1.9,0.7,3.2,1.2,3.9,1.8c0.7,0.6,0.7,1.2,0.2,1.8
						c-0.6,0.6-1.7,1.3-3.4,1.8c-1.7,0.6-4,1-6.9,0.9c-1.4,0-3-0.2-4.7-0.6c-1.7-0.4-3.5-1-5.3-2c-3.6-1.9-7.1-5.2-9.4-9
						c0.2,0.4-0.5-0.4-1.4-2.2c-1-1.8-2.1-4.7-3-8.2c-0.4-1.7-0.8-3.6-1.1-5.6c-0.1-1-0.3-2-0.4-3c-0.1-0.5-0.1-1-0.2-1.6l-0.1-0.8
						l0-0.4l0-0.1c0,0,0,0,0,0c0,0,0,0,0,0c-0.3-0.9-0.5-1.6-0.7-2.1c-0.4-0.9-0.9-0.5-1.4,0.3c-0.2,0.4-0.4,0.9-0.6,1.3
						c-0.1,0.4-0.2,0.6-0.2,0.6l-9.1,13.7c-2.5,3.1-5.3,6.1-8.9,8.9c-3.6,2.8-8,5.4-13.4,6.6c-1.3,0.3-2.7,0.5-4.1,0.7
						c-1.3,0.1-2.9,0.2-3.9,0.1c-1.1,0-2.2,0-3.3-0.2c-1.1-0.1-2.2-0.2-3.3-0.4c-4.5-0.7-9.1-2.3-13.4-4.8
						c-4.2-2.5-7.9-5.9-10.7-9.7c-2.8-3.7-4.8-7.8-6.3-11.7c-2.9-8-3.8-15.7-4.1-23.1c-0.1-3.7,0-7.4,0.2-11
						c0.2-3.6,0.6-7.1,1.1-10.6c1-7,2.4-13.8,4.1-20.6c3.5-13.5,8.3-27,16.1-39.7c3.9-6.3,8.6-12.4,14.5-17.8
						c5.9-5.3,13.2-9.9,21.5-12.4c1-0.3,2.1-0.6,3.1-0.8c1.1-0.2,2.2-0.4,3.2-0.6l2.9-0.4c1-0.1,2-0.2,3-0.3c4-0.3,8.1-0.2,12.3,0.3
						c4.2,0.6,8.4,1.6,12.6,3.4c4.1,1.8,8.2,4.3,11.7,7.5c3.6,3.3,6.7,7.5,8.6,12.1c2,4.6,3,9.4,3.2,14.1c0.2,4.7-0.3,9.1-1.3,13.3
						C340.5,269.3,339.1,273.2,337.4,276.9z"/>
				</g>
			</g>
		</g>
		<g>
			<g>
				<g>
					<path class="st6" d="M571,292.4c0.2,0.6,0.3,0.9,0,1.8c-0.3,1.6-0.8,3.4-1.9,4.8c-1,1.5-2.3,2.6-3.9,3.2
						c-1.6,0.6-3.4,0.7-5.4,0.2c-2.1-0.5-4.2-1.6-6.9-2.8c-0.2-0.1-0.9-0.6-1.1-0.8c-1.1-3.4-3.1-6-5.7-7.7c-1.3-0.8-2.8-1.4-4-1.6
						c-0.1,0-0.2,0-0.3,0l-0.2,0c0,0,0,0,0,0l0,0c0,0,0,0,0,0l0-0.4l0-0.4l0,0l0,0c0-0.2,0.1,1.7,0,0.9l0,0l0,0l-0.2,0l-0.8,0.1
						l-1.5,0.1l-1.4,0.3c-2.9,0.6-5.3,1.7-7.4,3.4c-2.1,1.7-4,4.1-5.7,7c-1.7,2.9-3.1,6.4-4.3,10.1c-1.2,3.6-2.3,7.8-3,11.2
						c-0.7,3.5-0.9,7-0.6,9.8l0.2,1l0.1,0.5c0,0.2,0.1,0.3,0.1,0.4c0.1,0.3,0.2,0.6,0.2,0.9c0.1,0.3,0.2,0.5,0.3,0.7
						c0.2,0.5,0.4,0.8,0.6,1.2c0.1,0.2,0.3,0.3,0.4,0.5c0.1,0.1,0.2,0.3,0.4,0.4c0.1,0.1,0.3,0.2,0.4,0.4c0.1,0.1,0.3,0.2,0.5,0.3
						c0.3,0.3,0.8,0.4,1.1,0.6c0.2,0.1,0.5,0.1,0.7,0.2c0.3,0.1,0.5,0.2,0.8,0.2c0.3,0,0.6,0.1,0.9,0.1c0.3,0.1,0.6,0.1,1,0.1
						l1.1,0.1l0.5,0l0.3,0c0.3,0,0.7-0.1,1-0.2c0.7-0.2,1.6-0.6,2.6-1.3c0.7-0.5,1.5-1.2,2.3-2c0.4-0.4,0.8-0.8,1.2-1.3l0.6-0.7
						l0.3-0.4l0.7-0.9c1.9-2.4,3.6-5.1,5.3-8c1.7-2.8,3.4-5.9,5.1-8.6c0,0,0.1-0.2,0.4-0.6c0.3-0.4,0.6-0.9,1.1-1.5
						c1-1.2,2.4-2.9,3.9-3.8c1.5-1,3-1.6,4.4-1.8c0.7-0.1,1.4-0.2,2.1-0.2c0.7,0,1.4-0.1,2.5,0.1c0.3,0.1,0.6,0.2,1,0.3
						c0.2,0,0.4,0.2,0.6,0.2c0.2,0.1,0.4,0.2,0.6,0.3c0.7,0.4,1.3,0.8,1.6,1.2c0.6,0.8,0.7,1.4,0.9,2.1c0.1,0.7,0.2,1.4,0.3,2.4
						c0.1,1,0.3,2,0.6,3.6c0.2,1.5,0.7,3.5,0.6,6.6c-0.1,1.6-0.3,3.5-0.8,5.6c-0.2,1-0.4,1.9-0.6,2.9l-0.2,1.3l-0.1,0.6l-0.1,0.6
						l-0.1,1.1l0,1c0,0.7,0.1,1.2,0.2,1.8c0,0.3,0.1,0.6,0.2,0.8c0.1,0.2,0.1,0.3,0.1,0.4c0.1,0.2,0.1,0.5,0.2,0.7
						c0.3,0.9,0.7,1.9,1.2,2.8c1.8,3,4.5,5.3,6.7,7c2.3,1.7,4.2,3,5.6,4.1c2.8,2.1,3.5,3.3,2.2,3.9c-1.2,0.6-4.2,0.8-8.5-0.2
						c-2.1-0.5-4.6-1.3-7.2-2.5c-2.6-1.3-5.4-3.1-8-5.9c0.2,0.3-0.4-0.2-1.5-1.6c-0.5-0.7-1.2-1.7-1.8-2.9c-0.2-0.3-0.3-0.6-0.5-0.9
						c-0.1-0.1-0.1-0.1-0.1-0.2l-0.1-0.1c-0.1-0.1-0.2-0.3-0.3-0.4c-0.3-0.6-0.5-1.2-0.6-1.7c-0.1-0.4-0.1-0.7-0.2-0.7
						c-0.1,0-0.1,0-0.4,0.1c-0.1,0.1-0.3,0.3-0.4,0.5c-0.1,0.2-0.2,0.4-0.3,0.7c-0.3,0.8-0.5,1.5-0.6,1.9c-0.1,0.4-0.1,0.7-0.1,0.8
						c0,0.1,0,0.2,0,0.2l-0.5,0.6c-2.1,2.5-4.5,4.9-7.6,7.2c-2.5,1.8-5.5,3.4-8.9,4.4c-1.7,0.5-3.5,0.8-5.4,0.9l-1.4,0l-1.1,0
						l-2.2-0.1c-0.7,0-1.5-0.1-2.2-0.3l-2.3-0.4c-0.8-0.1-1.6-0.4-2.3-0.6c-0.8-0.3-1.5-0.4-2.3-0.8c-1.6-0.7-3.1-1.3-4.6-2.4
						c-0.7-0.5-1.5-0.9-2.2-1.5c-0.7-0.6-1.3-1.2-2-1.8c-0.7-0.6-1.2-1.3-1.8-2c-0.5-0.7-1.2-1.4-1.6-2.1c-0.9-1.5-1.8-3-2.3-4.5
						c-0.3-0.8-0.7-1.5-0.9-2.3l-0.6-2.2c-0.1-0.4-0.2-0.8-0.3-1.1l-0.2-1.1l-0.3-2.2c-0.7-5.8-0.1-11,0.8-15.9
						c1-5,2.2-9.2,3.6-13.8c1.5-4.5,3.3-9.1,5.9-13.7c0.7-1.1,1.4-2.3,2.1-3.4c0.8-1.1,1.6-2.2,2.4-3.3c0.9-1.1,1.9-2.1,2.8-3.2
						c1.1-1,2.1-2,3.3-2.9c4.6-3.7,10.3-6.2,15.8-7.4l2.7-0.5l2.6-0.3c0.9-0.1,1.5-0.2,3.1-0.2l1,0l0.9,0.1c0.6,0.1,1.2,0.1,1.7,0.2
						c4.4,0.8,8.1,2.3,11.5,4.4c3.4,2.1,6.4,4.9,8.8,8.1c0.3,0.4,0.6,0.8,0.9,1.2l0.8,1.2c0.5,0.8,1.1,1.7,1.5,2.5
						c0.4,0.9,0.8,1.7,1.2,2.6L571,292.4z"/>
				</g>
			</g>
		</g>
		<g>
			<g>
				<g>
					<path class="st6" d="M342.5,284.8c0-0.5,0-0.7,0.5-1.3c1.5-2.2,4-4.8,7.3-5.6c3.3-0.8,7.3,0.2,11.6,5.6
						c0.2,0.2,0.7,1.1,0.8,1.6c-0.2,11.4-0.8,22.8-2,34.2c-0.6,5.6-1.3,11.3-2.2,16.9l-1.3,8.2c-0.2,1.3-0.4,2.6-0.5,3.4
						c0,0.1,0,0.4,0,0.4l0,0l0,0l-0.2,0l-0.6,0l-1.2,0l-0.9,0c-0.5,0-1.1,0-1.6,0.1c-0.3,0-0.5,0.1-0.8,0.1c-0.3,0-0.6,0.1-0.7,0.1
						c-0.4,0-0.7,0.1-1.1,0.1c-0.3,0.1-0.8,0.3-0.9,0.3c-0.2,0-0.4,0.1-0.6,0.3c-0.1,0.1-0.1,0.1-0.2,0.1c0,0-0.1,0-0.1,0.1
						c0,0-0.1,0.1-0.1,0.1c0,0,0,0,0-0.1c0,0,0,0,0,0l0,0c0,0,0.1-0.3,0-0.1l0,0c0,0,0,0.1,0,0.1c0-0.1,0-0.1,0-0.1
						c0-0.1-0.1-0.3-0.2-0.4c-0.1-0.1-0.1-0.1-0.2-0.2c-0.1-0.1-0.2-0.2-0.2-0.3c-0.2-0.2-0.3-0.3-0.6-0.5c-0.3-0.2-0.5-0.4-0.8-0.6
						c-0.1-0.1-0.3-0.2-0.4-0.3c-0.1-0.1-0.3-0.2-0.5-0.3c-0.4-0.2-0.8-0.5-1.2-0.7c-0.4-0.2-0.8-0.4-1.2-0.6
						c-0.5-0.3-1-0.5-1.5-0.7l-0.7-0.3l0,0c0,0,0,0,0,0l0.1-0.1c0.1-0.2,0.1-0.3,0.2-0.5c0.3-0.8,0.5-2,0.8-3.2
						c0.5-2.4,1-5.1,1.5-7.8c1-5.4,2-11,3.3-16.6c1.3-5.6,2.9-11.4,5.1-17.1c1.1-2.9,2.4-5.8,4-8.7c1.6-2.9,3.6-5.8,6.1-8.6
						c2.5-2.8,5.7-5.4,9.7-7.3c3.9-1.9,8.4-2.7,12.5-2.6c2.1,0,4,0.3,6,0.7c1,0.2,2,0.5,3,0.8c1,0.4,2,0.7,3,1.2
						c2,0.9,3.9,2.2,5.6,3.6c1.7,1.5,3.2,3.1,4.4,4.8c1.4,1.9,2.4,3.9,3.3,5.9c0.8,2,1.5,3.9,2,5.8c1,3.8,1.5,7.4,1.8,10.9
						c0,0,0,0.5,0,1.5c0,1,0,2.4-0.1,4.1c-0.1,3.5-0.5,8.2-1.1,13.5c-0.7,5.1-1.4,10.9-2.2,16.7c-0.7,5.6-1.2,11.2-0.7,15.6
						c0.2,1.8,0.7,3.3,1.2,4.3c0.5,1.1,1.3,1.9,2.2,2.5c0.8,0.6,1.9,1,2.9,1.3c1,0.3,1.9,0.4,2.7,0.6c1.6,0.3,2.8,0.5,3.4,0.9
						c0.6,0.4,0.8,0.8,0.4,1.4c-0.2,0.3-0.5,0.6-0.9,1c-0.4,0.4-1,0.7-1.7,1c-1.4,0.7-3.3,1.4-5.9,1.5c-2.7,0.2-6.3-0.6-9.2-3.1
						c-3.1-2.5-4.9-5.9-6.1-9.2c0.1,0.7-1.4-3-2.2-8.4c-0.9-5.5-1.1-12.6-1.3-19.6c-0.2-7-0.4-13.7-0.8-18.6
						c-0.2-2.4-0.5-4.4-0.7-5.7c-0.1-0.7-0.2-1.2-0.3-1.5c-0.1-0.3-0.1-0.5-0.1-0.5c-0.3-2.2-0.7-4.3-1.2-6.1
						c-0.5-1.8-1.3-3.2-2-4.3c-0.8-1-1.4-1.6-2.4-2c-0.2-0.1-0.5-0.2-0.8-0.3c-0.3-0.1-0.6-0.2-0.9-0.3c-0.7-0.1-1.5-0.3-2.2-0.3
						c-1.4,0-2.4,0.2-3.5,0.7c-1.1,0.5-2.2,1.3-3.4,2.6c-2.3,2.6-4.5,6.6-6.2,11.1c-1.7,4.5-3.1,9.4-4.3,14.4
						c-1.2,5.1-2.1,10.3-3.1,15.7c-0.5,2.7-1,5.5-1.6,8.4c-0.3,1.5-0.7,3-1.2,4.8c-0.1,0.4-0.3,1-0.5,1.4c-0.2,0.6-0.4,1.1-0.7,1.8
						l-0.2,0.5l-0.3,0.6l-0.3,0.6c0,0.1-0.1,0.2-0.2,0.4l-0.3,0.4c-0.2,0.3-0.4,0.5-0.6,0.8c-0.3,0.3-0.6,0.7-1,1.1
						c-0.2,0.2-0.4,0.3-0.5,0.5c-0.1,0.1-0.2,0.2-0.4,0.3l-0.5,0.3c-0.7,0.5-1.3,0.8-2.1,1.2c-0.9,0.4-2,0.7-3,0.8
						c-1,0.1-2.1,0.1-3.1-0.1c-2-0.2-4.7-1.7-6-3.1c-0.4-0.4-0.7-0.8-1-1.2c-0.2-0.2-0.3-0.4-0.4-0.7c-0.2-0.2-0.2-0.3-0.3-0.5
						c-0.3-0.6-0.6-1.2-0.8-1.8l-0.2-0.5c-0.1-0.2-0.1-0.2-0.1-0.3l-0.1-0.6c-0.1-0.4-0.1-0.7-0.2-1.1c0-0.2,0-0.3,0-0.4l0-0.4
						l0-0.7l0-0.3l0-0.3l0-0.5c0-0.7,0.1-1.1,0.1-1.7c0.2-1.9,0.4-3.3,0.6-4.8l1.3-8.1c0.8-5.3,1.5-10.5,2.1-15.8
						C341.8,306.5,342.4,295.7,342.5,284.8z"/>
				</g>
			</g>
		</g>
		<g>
			<g>
				<g>
					<path class="st6" d="M431.5,297.4c0-0.1,0-0.1,0.4-0.2c2.5-0.6,8.7-1.4,15.6,1.9c0.1,0.1,0.6,0.3,0.6,0.5c0,0.2-0.4,3-1,7.1
						c-0.6,4.1-1.4,9.4-2.3,14.8c-0.8,5.3-1.6,10.6-2.1,14.5c-0.5,3.9-0.8,6.5-0.8,6.5s-0.6,1.6-1.6,3.8c-0.9,2.1-2.2,4.8-3.3,6.9
						c-0.4,0.9-0.8,1.6-1.1,2.1c-0.2,0.2-0.3,0.5-0.5,0.6c-0.1,0.1-0.2,0.2-0.3,0.2c-0.1,0.1-0.3,0.2-0.3,0.3
						c-0.1,0.1-0.1,0.1-0.2,0.2c0,0-0.1,0.1-0.1,0.2c0,0.2,0,0.4,0.1,0.7c0.1,0.4,0.1,0.8,0.1,1.2c-0.1,0.2-0.3,0.4-0.6,0.5
						c-0.3,0.1-0.8,0.2-1.3,0c-1-0.2-1.9-1-2.5-1.6c-1.2-1.3-2-2.8-2.5-4.3c-0.1,0.2-0.4-0.7-0.7-2c-0.3-1.3-0.6-3-0.9-4.7
						c-0.5-3.4-0.8-6.8-0.8-6.8s0.3-2.7,0.8-6.7c0.5-4,1.3-9.3,2.1-14.6c0.8-5.2,1.6-10.5,2.2-14.5
						C431.1,300.2,431.5,297.6,431.5,297.4z"/>
				</g>
			</g>
		</g>
		<g>
			<g>
				<g>
					<path class="st6" d="M467,259.6c0-0.2,0-0.3,0.6-0.5c1.7-0.8,4.7-1.9,8.5-2.1c3.8-0.2,8.5,0.3,13.4,2.8
						c0.2,0.1,0.8,0.5,0.9,0.7c0,0.1-0.1,1.6-0.2,3.9c-0.2,2.4-0.3,5.7-0.7,9.6c-0.6,7.8-1.7,18.1-3,28.1
						c-1.3,9.9-2.6,19.8-3.6,27.3c-0.9,7.3-1.5,12.2-1.5,12.2s-0.3,0.8-0.7,2.1c-0.4,1.3-1,3.1-1.8,5.2c-1.5,4.2-3.4,9.4-5.5,13.8
						c-2.9,7.4-5.5,9.7-7.8,8.8c-2.2-0.9-4.1-5-5.2-9.9c-0.3,0.5-1-5.4-1.5-11.5c-0.3-3-0.4-6.1-0.6-8.4c-0.1-2.3-0.2-3.8-0.2-3.8
						s0.1-1.2,0.4-3.4c0.3-2.2,0.6-5.2,1.1-9c1-7.3,2.2-17.1,3.5-26.9c1.2-9.7,2.3-19.4,2.8-26.6c0.3-3.6,0.5-6.7,0.6-8.9
						C466.9,261,467,259.7,467,259.6z"/>
				</g>
			</g>
		</g>
		<g>
			<g>
				<g>
					<path class="st6" d="M442.6,269c0,0,0,0,0.2,0.4c0.5,1,1.5,2.8,2.8,5.1c1.3,2.3,3,5.1,3.6,8.6c0,0.1,0.1,0.6,0,0.7
						c0,0-0.2,0.1-0.5,0.2c-0.3,0.1-0.8,0.3-1.2,0.4c-1,0.3-2.2,0.6-3.3,0.7c-1.2,0.2-2.4,0.3-3.3,0.3c-0.2,0-0.3,0-0.5,0.1l-0.1,0
						l-0.2-1.1l-0.2-0.9c-0.1-0.6-0.3-1.3-0.4-1.9c-0.4-2-1.1-3.2-1.4-3.4c-0.1,0,0,0,0,0l0,0l0,0c-6.9-0.3,9.4,0.4,7.8,0.3l0.1-0.1
						l0.4-0.3l1.4-1.3l0.4-0.3c0,0,0,0,0.1,0l0.1,0.1c0.2,0.3,0.3,0.5,0.5,0.8c0.6,1,0.8,1.8,0.9,2.4c0.1,0.6,0.2,1.1,0.2,1.5
						c0,0.4,0,0.8-0.1,1.7c-0.1,0.8-0.3,1.5-0.6,2.1c-0.5,1.2-1.1,2-1.6,2.6c-0.5,0.6-0.9,0.9-0.9,0.9s-0.3,0.2-0.9,0.4
						c-0.6,0.2-1.4,0.5-2.5,0.8c-2.1,0.5-4.8,0.6-6.9,0.2c-0.8-0.1-1.5-0.3-2-0.5c-0.4-0.3-0.8-0.6-1.1-0.9c-0.6-0.6-1.1-1.3-1.4-2
						c-0.3-0.7-0.3-1.5-0.2-2.3c0-0.2,0.1-0.4,0.1-0.6l0-0.5c0-0.3-0.1-0.6-0.1-0.8c-0.1-0.1-0.1-1-0.5-1.6c-0.4-0.6-1.2-1-1.2-1
						l-0.1-0.5l-0.2-1.2c0-0.1,0-0.2,0-0.3c0-0.2,0-0.4,0.1-0.6c0.1-0.4,0.1-0.9,0.3-1.3c0.2-0.8,0.7-1.7,1-2.2
						c0.4-0.6,0.8-1.1,1.3-1.6l0.4-0.3l0.2-0.2c0.1-0.1,0.3-0.2,0.4-0.3c0.3-0.2,0.6-0.4,0.9-0.6c0.5-0.2,0.8-0.4,1.2-0.5
						c0.2-0.1,0.3-0.1,0.4-0.2l0.4-0.1l0.4-0.1l0.3-0.1c1.4-0.3,2-0.3,2.6-0.4c1.2-0.1,2-0.2,2.5-0.3
						C442.4,269,442.6,268.9,442.6,269C442.6,268.9,442.6,268.9,442.6,269c0.1,0.1,0.2,0.2,0.2,0.3l0,0.1l0,0
						C442.5,268.4,442.7,269.2,442.6,269L442.6,269L442.6,269L442.6,269L442.6,269C442.6,269,442.6,269,442.6,269
						C442.6,269,442.6,269,442.6,269z"/>
				</g>
			</g>
		</g>
		<g>
			<g>
				<g>
					<path class="st6" d="M458.8,267.6c-0.2,0-0.2,0-0.5-0.4c-1-1.2-2.4-3.3-3.2-6.2c-0.8-2.9-1.1-6.5,0.2-10.8
						c0-0.2,0.3-0.7,0.5-0.8c0.1,0,1.4-0.2,3.4-0.6c2.1-0.3,4.9-0.7,8.4-1.2c6.9-0.9,15.9-1.7,24.7-2.3c8.8-0.6,17.6-1.2,24.1-1.6
						c6.5-0.5,10.8-0.9,10.8-0.9s0.7,0.1,1.9,0.2c1.2,0.1,2.8,0.3,4.8,0.5c3.8,0.4,8.7,1,12.8,1.8c6.9,0.9,9.3,2.5,8.9,4.4
						c-0.4,1.8-3.6,4-7.7,5.7c0.5,0.1-4.5,1.7-9.6,3.1c-2.6,0.7-5.2,1.3-7.1,1.8c-2,0.5-3.3,0.8-3.3,0.8s-1.1,0.1-3,0.3
						c-1.9,0.1-4.6,0.4-7.9,0.6c-6.5,0.4-15.1,1-23.8,1.6c-8.6,0.6-17.1,1.4-23.4,2.2c-3.2,0.4-5.8,0.8-7.7,1.1
						C460,267.4,458.9,267.6,458.8,267.6z"/>
				</g>
			</g>
		</g>
		<g>
			<g>
				<g>
					<path class="st6" d="M323.3,281.6c0,0,0,0-0.3-0.2c-0.7-0.6-2.1-1.7-3.8-2.9c-0.5-0.3-0.9-0.6-1.4-1.1c-0.6-0.5-1.2-1-1.8-1.5
						c-1.3-1.1-2.6-2.3-3.8-3.8c-0.1-0.1-0.4-0.5-0.4-0.6c0,0,0.2-0.5,0.7-1c0.4-0.6,1.1-1.4,2.1-2.1c1-0.8,2.3-1.5,3.7-2
						c0.7-0.2,1.7-0.5,2.5-0.6c0.8-0.1,1.4-0.2,2.1-0.2c1.2,0,2,0,2.6,0c0.6,0,0.9,0,0.9,0c0,0,0,0,0,0c0,0,0,0,0,0l0,0.1l0.1,0.3
						c0.1,0.3,0.2,0.6,0.2,0.9c0.1,0.2,0.1,0.4,0.2,0.6c0,0.1,0.1,0.3,0.1,0.4c0.2,0.5,0.2,0.5,0.2,0.5c0,0,0.1,0.1,0.1,0.2
						c0,0,0.1,0.1,0,0c0,0,0,0-0.1-0.1c-0.1-0.1-0.1-0.1-0.2-0.2l-0.2-0.1c-0.1-0.1-0.3-0.2-0.1-0.1c0.2,0.1,0.5,0.3,0.7,0.3
						c0.3,0.1,0.6,0.2,0.9,0.2c0.9,0,1.9-0.1,2.7,0c0.9,0,1.7,0.1,2.5,0.4c1.5,0.5,2.7,1.6,3,3.2c0.2-0.1,0.4,1.7-0.5,3.9
						c-0.4,1.1-1.2,2.2-1.8,2.9c-0.7,0.7-1.2,1.2-1.2,1.2s-0.5,0.2-1.3,0.6c-0.4,0.1-0.9,0.3-1.4,0.4c-0.5,0.1-1.1,0.3-1.6,0.3
						c-2.3,0.4-4.4,0.2-5.3,0.3C323.5,281.6,323.3,281.7,323.3,281.6c-0.1,0-0.1,0-0.1,0l0,0l-0.1-0.3l-0.1-0.3l0-0.2l0,0
						c-0.1-0.8,0.2,1,0.2,0.8l0,0l0,0C323.2,281.7,323.3,281.7,323.3,281.6C323.4,281.6,323.3,281.6,323.3,281.6L323.3,281.6z"/>
				</g>
			</g>
		</g>
		<g>
			<g>
				<g>
					<path class="st6" d="M558,303.1c0,0,0,0-0.2-0.1c-0.6-0.4-1.7-0.9-3.2-1.6c-0.4-0.2-0.8-0.4-1.2-0.6c-0.5-0.3-1-0.5-1.5-0.8
						c-1-0.6-2.1-1.3-3.2-2.2c-0.1-0.1-0.3-0.3-0.4-0.4c0,0,0.1-0.3,0.4-0.8c0.1-0.1,0.1-0.3,0.2-0.4c0.1-0.1,0.2-0.3,0.3-0.4
						c0.2-0.3,0.4-0.6,0.7-1c0.3-0.3,0.7-0.7,1.1-1c0.4-0.3,0.8-0.6,1.4-0.9c0.3-0.2,0.6-0.3,0.9-0.4c0.2-0.1,0.3-0.1,0.5-0.2
						l0.4-0.1l0.8-0.2c0.3-0.1,0.4-0.1,0.7-0.1c1.7-0.3,2.4-0.4,2.5-0.5l0,0c0,0,0-0.1,0.1,0.1c0.1,0.2,0.1,0.3,0.2,0.5l0.1,0.1l0,0
						l0,0.1c0.1,0.3,0.2,0.5,0.3,0.6c0.3,0.4,0.2,0.3,0.2,0.4c0,0,0,0,0.1,0.1c0,0,0.2,0.2,0,0c-0.1,0-0.1-0.1-0.2-0.1
						c0,0,0,0-0.1-0.1l-0.2-0.1l0.1,0c0.3,0.1,0.8,0.2,1.2,0.2c1.3-0.2,2.7-0.5,3.8-0.3c1.1,0.2,2,1,2.5,2c0.1,0,0.2,0.2,0.2,0.8
						c0,0.3,0,0.6,0,0.9c0,0.2,0,0.4,0,0.5c0,0.2-0.1,0.4-0.1,0.6c-0.2,0.8-0.6,1.7-1,2.3c-0.4,0.6-0.7,1-0.7,1s-0.1,0.1-0.2,0.1
						c-0.1,0.1-0.3,0.2-0.6,0.4c-0.3,0.1-0.6,0.3-1,0.5c-0.3,0.1-0.7,0.3-1.1,0.4C560.2,302.9,558.7,303,558,303.1
						C557.7,303.3,557.7,303.3,558,303.1L558,303.1z"/>
				</g>
			</g>
		</g>
		<g>
			<g>
				<g>
					<path class="st6" d="M325.9,374c-0.7,2.8-0.6,4.7,0.7,5.4c0.4,0.2,1.1,0.6,2,0.9c0.9,0.4,2,0.8,3,1c1.1,0.3,2.1,0.5,2.9,0.6
						c0.8,0.1,1.3,0.2,1.3,0.2s0.1,0,0.3,0c0.2,0,0.6,0,0.9,0.1c0.8,0.1,1.9,0.1,3,0c0.6,0,1.2-0.1,1.7-0.2c0.6-0.1,1.1-0.2,1.7-0.3
						c1-0.3,1.9-0.5,2.3-0.7c0.7-0.3,1.2-0.9,1.3-2c0.1-1,0-2.4-0.4-4.1c-1.3-1.2-2.2-2.2-2.9-2.8c-0.7-0.6-1.2-0.9-1.5-0.8
						c-0.2,0.1-0.7,0.2-1.2,0.4c-0.3,0.1-0.6,0.2-0.9,0.2c-0.3,0.1-0.7,0.1-1,0.2c-0.7,0.1-1.3,0.2-1.8,0.2c-0.2,0-0.5,0-0.6,0
						c-0.1,0-0.2,0-0.2,0s-0.3,0-0.8,0c-0.5,0-1.2-0.1-1.9-0.2c-0.7-0.1-1.5-0.3-2.1-0.5c-0.6-0.2-1.1-0.4-1.4-0.4
						C329.3,371.2,328.3,372.4,325.9,374z"/>
				</g>
			</g>
		</g>
	</g>
</g>
</svg>
